<?xml version="1.0" encoding="UTF-8" standalone="no"?>
<svg
   width="62.033661"
   height="39.397793"
   viewBox="0 0 16.413072 10.423999"
   version="1.1"
   id="svg8"
   inkscape:version="1.1.2 (0a00cf5339, 2022-02-04)"
   sodipodi:docname="lds-unofficial-logo.svg"
   xmlns:inkscape="http://www.inkscape.org/namespaces/inkscape"
   xmlns:sodipodi="http://sodipodi.sourceforge.net/DTD/sodipodi-0.dtd"
   xmlns="http://www.w3.org/2000/svg"
   xmlns:svg="http://www.w3.org/2000/svg"
   xmlns:rdf="http://www.w3.org/1999/02/22-rdf-syntax-ns#"
   xmlns:cc="http://creativecommons.org/ns#"
   xmlns:dc="http://purl.org/dc/elements/1.1/">
  <defs
     id="defs2">
    <rect
       x="713.37866"
       y="434.50272"
       width="11.622864"
       height="52.063568"
       id="rect14087" />
  </defs>
  <sodipodi:namedview
     id="base"
     pagecolor="#ffffff"
     bordercolor="#666666"
     borderopacity="1.0"
     inkscape:pageopacity="0.0"
     inkscape:pageshadow="2"
     inkscape:zoom="5.6568542"
     inkscape:cx="-31.819805"
     inkscape:cy="6.1871843"
     inkscape:document-units="px"
     inkscape:current-layer="layer1"
     inkscape:document-rotation="0"
     showgrid="false"
     units="px"
     inkscape:window-width="2560"
     inkscape:window-height="1011"
     inkscape:window-x="0"
     inkscape:window-y="32"
     inkscape:window-maximized="1"
     inkscape:pagecheckerboard="0"
     inkscape:lockguides="true"
     fit-margin-top="0"
     fit-margin-left="0"
     fit-margin-right="0"
     fit-margin-bottom="0"
     lock-margins="true"
     inkscape:snap-global="false" />
  <metadata
     id="metadata5">
    <rdf:RDF>
      <cc:Work
         rdf:about="">
        <dc:format>image/svg+xml</dc:format>
        <dc:type
           rdf:resource="http://purl.org/dc/dcmitype/StillImage" />
      </cc:Work>
    </rdf:RDF>
  </metadata>
  <g
     inkscape:label="Layer 1"
     inkscape:groupmode="layer"
     id="layer1"
     transform="translate(-230.87712,-74.056183)">
    <g
       id="g7964"
       transform="matrix(0.39315024,-0.13281702,0.13281702,0.39315024,66.53521,78.288707)">
      <text
         xml:space="preserve"
         style="font-size:10.5833px;line-height:1.25;font-family:Montserrat;-inkscape-font-specification:'Montserrat, @wght=700';font-variation-settings:'wght' 700;text-align:center;text-anchor:middle;fill:#ff0000;stroke-width:0.264583"
         x="128.08859"
         y="63.989243"
         id="text3925"><tspan
           sodipodi:role="line"
           id="tspan3923"
           style="fill:#ff0000;stroke-width:0.264583"
           x="129.58612"
           y="63.989243">     </tspan></text>
      <text
         xml:space="preserve"
         style="font-size:10.5833px;line-height:1.25;font-family:Montserrat;-inkscape-font-specification:'Montserrat, @wght=700';font-variation-settings:'wght' 700;text-align:center;text-anchor:middle;fill:#ff0000;stroke-width:0.264583"
         x="127.67055"
         y="55.816013"
         id="text6892"><tspan
           sodipodi:role="line"
           id="tspan6890"
           style="fill:#ff0000;stroke-width:0.264583"
           x="127.67055"
           y="55.816013">NOT</tspan></text>
      <text
         xml:space="preserve"
         style="font-size:10.5833px;line-height:1.25;font-family:Montserrat;-inkscape-font-specification:'Montserrat, @wght=700';font-variation-settings:'wght' 700;text-align:center;text-anchor:middle;fill:#ff0000;stroke-width:0.264583"
         x="127.80284"
         y="65.858337"
         id="text7116"><tspan
           sodipodi:role="line"
           id="tspan7114"
           style="fill:#ff0000;stroke-width:0.264583"
           x="127.80284"
           y="65.858337">OFFICIALLY</tspan></text>
    </g>
    <style
       type="text/css"
       id="style829"> .st0{fill:none;}
</style>
    <g
       id="g833"
       transform="matrix(0.26458333,0,0,0.26458333,113.51135,79.565501)">
      <rect
         class="st0"
         width="313.39001"
         height="158.56"
         id="rect831"
         x="0"
         y="0" />
    </g>
    <g
       id="g915"
       transform="matrix(0.26458333,0,0,0.26458333,113.51135,79.565501)">
      <g
         id="g911">
        <path
           d="m 51.46,41.09 c 0,0 -0.11,0.06 -0.28,0.06 -0.22,0 -0.45,-0.06 -0.45,-0.11 0,-0.78 -0.17,-1.56 -0.56,-2 -0.56,-0.61 -1.45,-1 -4.78,-1 -0.67,0 -1.06,0.06 -1.33,0.06 -0.11,0.33 -0.17,1.5 -0.17,3.39 v 7.23 c 0,5.45 0.28,6.12 0.67,6.29 0.39,0.22 1.17,0.39 2.39,0.5 0.06,0.06 0.06,0.22 0.06,0.39 0,0.17 0,0.33 -0.06,0.33 h -8.79 c -0.06,0 -0.11,-0.17 -0.11,-0.33 0,-0.17 0.06,-0.33 0.11,-0.39 1.22,-0.11 2,-0.28 2.39,-0.5 0.39,-0.17 0.61,-0.83 0.61,-6.29 v -7.23 c 0,-1.89 0,-3.06 -0.11,-3.39 -0.28,0 -0.83,-0.06 -1.5,-0.06 -3.17,0 -4.06,0.33 -4.78,1 -0.5,0.45 -0.78,1.34 -0.95,2.06 0,0.06 -0.06,0.06 -0.17,0.06 -0.22,0 -0.56,-0.11 -0.56,-0.17 l 0.45,-4.34 c 0,-0.06 0.06,-0.11 0.17,-0.11 1.11,0.17 3.5,0.33 8.85,0.33 7.34,0 8.46,-0.17 9.01,-0.39 0.11,0 0.17,0.06 0.17,0.11 0,1.16 -0.06,2.88 -0.28,4.5 z"
           id="path835" />
        <path
           d="m 67.59,56.22 c -0.06,0 -0.11,-0.17 -0.11,-0.33 0,-0.17 0.06,-0.33 0.11,-0.39 1.22,-0.11 1.72,-0.28 2.11,-0.5 0.39,-0.17 0.67,-0.83 0.67,-6.29 V 46.93 H 59.19 v 1.78 c 0,5.45 0.28,6.12 0.67,6.29 0.39,0.22 0.89,0.39 2.11,0.5 0.06,0.06 0.11,0.22 0.11,0.44 0,0.11 -0.06,0.28 -0.06,0.28 h -8.35 c -0.06,0 -0.06,-0.17 -0.06,-0.33 0,-0.17 0,-0.33 0.11,-0.39 1.22,-0.11 1.72,-0.28 2.11,-0.5 0.39,-0.17 0.61,-0.83 0.61,-6.29 v -4.34 c 0,-5.45 -0.22,-6.12 -0.61,-6.29 -0.39,-0.22 -0.89,-0.39 -2.11,-0.56 -0.11,0 -0.11,-0.17 -0.11,-0.33 0,-0.17 0,-0.33 0.06,-0.33 h 8.35 c 0,0 0.06,0.11 0.06,0.22 0,0.17 -0.06,0.45 -0.11,0.45 -1.22,0.17 -1.72,0.33 -2.11,0.56 -0.39,0.17 -0.67,0.83 -0.67,6.29 v 1.34 h 11.18 v -1.34 c 0,-5.45 -0.28,-6.12 -0.67,-6.29 -0.39,-0.22 -0.89,-0.39 -2.11,-0.56 -0.06,0 -0.11,-0.17 -0.11,-0.33 0,-0.17 0.06,-0.33 0.11,-0.33 h 8.29 c 0.06,0 0.06,0.11 0.06,0.28 0,0.17 0,0.39 -0.11,0.39 -1.17,0.17 -1.72,0.33 -2.11,0.56 -0.33,0.17 -0.61,0.83 -0.61,6.29 v 4.34 c 0,5.45 0.28,6.12 0.61,6.29 0.39,0.22 0.95,0.39 2.11,0.5 0.11,0.06 0.11,0.28 0.11,0.44 0,0.17 0,0.28 -0.06,0.28 h -8.29 z"
           id="path837" />
        <path
           d="m 91.29,55.78 c -0.22,0.33 -0.39,0.56 -1.17,0.56 -1.89,0 -4.12,-0.11 -6.68,-0.11 -2,0 -3.23,0 -5.4,0.06 -0.06,0 -0.11,-0.17 -0.11,-0.33 0,-0.17 0.06,-0.33 0.11,-0.39 1.22,-0.11 1.78,-0.28 2.11,-0.5 0.39,-0.17 0.67,-0.89 0.67,-6.34 v -4.34 c 0,-5.45 -0.28,-6.18 -0.67,-6.34 -0.33,-0.22 -0.89,-0.39 -2.11,-0.56 -0.06,0 -0.11,-0.17 -0.11,-0.33 0,-0.17 0.06,-0.33 0.11,-0.33 2.39,0.06 6.18,0.06 8.18,0.06 2.67,0 4.01,-0.11 5.01,-0.11 0.11,0 0.11,0.06 0.11,0.11 -0.11,1 -0.17,2.45 -0.33,4.01 0,0.06 -0.17,0.11 -0.33,0.11 -0.22,0 -0.44,-0.06 -0.44,-0.17 0,-0.78 -0.17,-1.5 -0.61,-2 -0.5,-0.5 -1.39,-0.78 -3.56,-0.78 -1.22,0 -2.06,0.06 -2.39,0.06 -0.11,0.33 -0.11,1.34 -0.11,3.23 v 4.23 h 2.28 c 2.95,0 3.34,-0.67 3.5,-1.72 0,-0.06 0.22,-0.06 0.39,-0.06 0.17,0 0.39,0 0.39,0.06 -0.06,0.83 -0.17,4.4 -0.17,5.17 0,0.06 -0.22,0.11 -0.39,0.11 -0.22,0 -0.39,-0.06 -0.39,-0.11 0,-0.56 -0.11,-1.33 -0.45,-1.61 -0.28,-0.22 -0.72,-0.56 -2.95,-0.56 h -2.23 v 1.89 c 0,3.62 0.28,5.34 0.67,5.79 0.39,0.33 0.78,0.56 2.61,0.56 1.89,0 2.95,-0.44 3.5,-1.06 0.45,-0.45 0.78,-1.06 1,-2.06 0,-0.06 0.11,-0.06 0.17,-0.06 0.17,0 0.45,0.11 0.39,0.17 -0.1,1.52 -0.38,3.24 -0.6,3.69 z"
           id="path839" />
        <path
           d="m 120.66,55.11 c -0.39,0.56 -2.45,1.39 -6.12,1.39 -6.34,0 -11.02,-4.34 -11.02,-9.74 0,-5.12 4.12,-10.18 10.96,-10.18 3.56,0 5.29,0.89 6.45,0.89 0.06,0 0.11,0.06 0.11,0.11 0.06,1.06 0.11,2.67 0.11,4.28 0,0.06 -0.11,0.11 -0.28,0.11 -0.22,0 -0.5,-0.06 -0.5,-0.17 -0.06,-0.78 -0.56,-1.78 -1.17,-2.39 -1.11,-1.06 -2.95,-1.72 -5.06,-1.72 -5.56,0 -7.57,3.95 -7.57,8.23 0,4.84 3.12,9.35 8.01,9.35 2.28,0 3.78,-0.39 4.84,-1.61 0.61,-0.78 1,-1.72 1.28,-2.61 0,-0.06 0.06,-0.06 0.17,-0.06 0.22,0 0.56,0.11 0.56,0.17 -0.1,1.56 -0.49,3.56 -0.77,3.95 z"
           id="path841" />
        <path
           d="m 138.19,56.22 c -0.06,0 -0.11,-0.17 -0.11,-0.33 0,-0.17 0.06,-0.33 0.11,-0.39 1.22,-0.11 1.72,-0.28 2.11,-0.5 0.39,-0.17 0.67,-0.83 0.67,-6.29 v -1.78 h -11.18 v 1.78 c 0,5.45 0.28,6.12 0.67,6.29 0.39,0.22 0.89,0.39 2.11,0.5 0.06,0.06 0.11,0.22 0.11,0.44 0,0.11 -0.06,0.28 -0.06,0.28 h -8.35 c -0.06,0 -0.06,-0.17 -0.06,-0.33 0,-0.17 0,-0.33 0.11,-0.39 1.22,-0.11 1.72,-0.28 2.11,-0.5 0.39,-0.17 0.61,-0.83 0.61,-6.29 v -4.34 c 0,-5.45 -0.22,-6.12 -0.61,-6.29 -0.39,-0.22 -0.89,-0.39 -2.11,-0.56 -0.11,0 -0.11,-0.17 -0.11,-0.33 0,-0.17 0,-0.33 0.06,-0.33 h 8.35 c 0,0 0.06,0.11 0.06,0.22 0,0.17 -0.06,0.45 -0.11,0.45 -1.22,0.17 -1.72,0.33 -2.11,0.56 -0.39,0.17 -0.67,0.83 -0.67,6.29 v 1.34 h 11.18 v -1.34 c 0,-5.45 -0.28,-6.12 -0.67,-6.29 -0.39,-0.22 -0.89,-0.39 -2.11,-0.56 -0.06,0 -0.11,-0.17 -0.11,-0.33 0,-0.17 0.06,-0.33 0.11,-0.33 h 8.29 c 0.06,0 0.06,0.11 0.06,0.28 0,0.17 0,0.39 -0.11,0.39 -1.17,0.17 -1.72,0.33 -2.11,0.56 -0.33,0.17 -0.61,0.83 -0.61,6.29 v 4.34 c 0,5.45 0.28,6.12 0.61,6.29 0.39,0.22 0.95,0.39 2.11,0.5 0.11,0.06 0.11,0.28 0.11,0.44 0,0.17 0,0.28 -0.06,0.28 h -8.29 z"
           id="path843" />
        <path
           d="m 167.67,38.14 c -0.28,0.22 -0.56,0.78 -0.56,6.23 v 5.01 c 0,3.56 -3,7.12 -7.84,7.12 -4.79,0 -8.12,-3.17 -8.12,-7.07 v -5.06 c 0,-5.45 -0.28,-6.12 -0.67,-6.29 -0.39,-0.22 -0.89,-0.39 -2.11,-0.56 -0.06,0 -0.11,-0.17 -0.11,-0.33 0,-0.17 0.06,-0.33 0.11,-0.33 h 8.46 c 0,0 0.06,0.17 0.06,0.33 0,0.17 -0.06,0.33 -0.11,0.33 -1.17,0.17 -1.84,0.33 -2.23,0.56 -0.39,0.17 -0.67,0.83 -0.67,6.29 v 4.28 c 0,3.73 2.28,6.12 6.12,6.12 3.78,0 5.56,-2.45 5.56,-5.79 v -4.62 c 0,-5.45 -0.28,-6.01 -0.56,-6.23 -0.33,-0.28 -1.06,-0.44 -2.28,-0.61 -0.06,0 -0.06,-0.17 -0.06,-0.28 0,-0.17 0,-0.39 0.06,-0.39 h 7.07 c 0.06,0 0.11,0.22 0.11,0.39 0,0.17 -0.06,0.28 -0.11,0.28 -1.23,0.17 -1.79,0.34 -2.12,0.62 z"
           id="path845" />
        <path
           d="m 190.42,56.28 c -1.89,0 -3.39,-0.28 -4.62,-1.06 -1.56,-1.06 -3.28,-3.12 -5.73,-7.18 h -1.11 c -0.72,0 -1.22,0 -2.06,-0.06 v 0.67 c 0,5.45 0.28,6.18 0.67,6.34 0.39,0.22 1.33,0.39 2.67,0.5 0.06,0.06 0.11,0.22 0.11,0.44 0,0.11 -0.06,0.28 -0.06,0.28 h -8.9 c -0.06,0 -0.06,-0.11 -0.06,-0.28 0,-0.17 0,-0.39 0.11,-0.44 1.17,-0.11 1.72,-0.28 2.11,-0.5 0.33,-0.17 0.61,-0.89 0.61,-6.34 v -4.34 c 0,-5.45 -0.28,-6.12 -0.61,-6.29 -0.39,-0.22 -0.95,-0.39 -2.11,-0.56 -0.11,0 -0.11,-0.22 -0.11,-0.39 0,-0.17 0,-0.28 0.06,-0.28 1.39,0 3,0.06 4.17,0.06 1.11,0 2.34,-0.06 3.73,-0.06 4.62,0 7.23,2.45 7.23,4.9 0,2.39 -1.78,4.34 -3.95,5.62 4.12,5.95 6.34,8.12 8.73,8.12 h 0.89 c 0.06,-0.06 0.17,0.56 0.17,0.67 -0.66,0.12 -1.22,0.18 -1.94,0.18 z M 179.24,37.92 c -1.06,0 -1.72,0.17 -1.84,0.39 -0.22,0.22 -0.5,2.06 -0.5,6.01 0,1.78 0.11,2 0.28,2.17 0.33,0.28 0.95,0.5 2.39,0.5 2.28,0 3.84,-2 3.84,-4.28 0,-2.68 -1.22,-4.79 -4.17,-4.79 z"
           id="path847" />
        <path
           d="m 208.28,55.11 c -0.39,0.56 -2.45,1.39 -6.12,1.39 -6.34,0 -11.02,-4.34 -11.02,-9.74 0,-5.12 4.12,-10.18 10.96,-10.18 3.56,0 5.29,0.89 6.45,0.89 0.06,0 0.11,0.06 0.11,0.11 0.06,1.06 0.11,2.67 0.11,4.28 0,0.06 -0.11,0.11 -0.28,0.11 -0.22,0 -0.5,-0.06 -0.5,-0.17 -0.06,-0.78 -0.56,-1.78 -1.17,-2.39 -1.11,-1.06 -2.95,-1.72 -5.06,-1.72 -5.56,0 -7.57,3.95 -7.57,8.23 0,4.84 3.12,9.35 8.01,9.35 2.28,0 3.78,-0.39 4.84,-1.61 0.61,-0.78 1,-1.72 1.28,-2.61 0,-0.06 0.06,-0.06 0.17,-0.06 0.22,0 0.56,0.11 0.56,0.17 -0.1,1.56 -0.49,3.56 -0.77,3.95 z"
           id="path849" />
        <path
           d="m 225.58,56.22 c -0.06,0 -0.11,-0.17 -0.11,-0.33 0,-0.17 0.06,-0.33 0.11,-0.39 1.22,-0.11 1.72,-0.28 2.11,-0.5 0.39,-0.17 0.67,-0.83 0.67,-6.29 v -1.78 h -11.18 v 1.78 c 0,5.45 0.28,6.12 0.67,6.29 0.39,0.22 0.89,0.39 2.11,0.5 0.06,0.06 0.11,0.22 0.11,0.44 0,0.11 -0.06,0.28 -0.06,0.28 h -8.35 c -0.06,0 -0.06,-0.17 -0.06,-0.33 0,-0.17 0,-0.33 0.11,-0.39 1.22,-0.11 1.72,-0.28 2.11,-0.5 0.39,-0.17 0.61,-0.83 0.61,-6.29 v -4.34 c 0,-5.45 -0.22,-6.12 -0.61,-6.29 -0.39,-0.22 -0.89,-0.39 -2.11,-0.56 -0.11,0 -0.11,-0.17 -0.11,-0.33 0,-0.17 0,-0.33 0.06,-0.33 h 8.35 c 0,0 0.06,0.11 0.06,0.22 0,0.17 -0.06,0.45 -0.11,0.45 -1.22,0.17 -1.72,0.33 -2.11,0.56 -0.39,0.17 -0.67,0.83 -0.67,6.29 v 1.34 h 11.18 v -1.34 c 0,-5.45 -0.28,-6.12 -0.67,-6.29 -0.39,-0.22 -0.89,-0.39 -2.11,-0.56 -0.06,0 -0.11,-0.17 -0.11,-0.33 0,-0.17 0.06,-0.33 0.11,-0.33 h 8.29 c 0.06,0 0.06,0.11 0.06,0.28 0,0.17 0,0.39 -0.11,0.39 -1.17,0.17 -1.72,0.33 -2.11,0.56 -0.33,0.17 -0.61,0.83 -0.61,6.29 v 4.34 c 0,5.45 0.28,6.12 0.61,6.29 0.39,0.22 0.95,0.39 2.11,0.5 0.11,0.06 0.11,0.28 0.11,0.44 0,0.17 0,0.28 -0.06,0.28 h -8.29 z"
           id="path851" />
        <path
           d="m 253.67,56.5 c -5.9,0 -10.29,-4.34 -10.29,-9.74 0,-5.12 4.39,-10.18 10.68,-10.18 5.9,0 10.29,4.34 10.29,9.74 0,5.12 -4.39,10.18 -10.68,10.18 z m -0.22,-18.69 c -5.45,0 -7.01,4.45 -7.01,8.12 0,4.84 2.89,9.35 7.84,9.35 5.45,0 7.01,-4.45 7.01,-8.12 0,-4.85 -2.89,-9.35 -7.84,-9.35 z"
           id="path853" />
        <path
           d="m 279.76,40.81 c 0,0.06 -0.11,0.06 -0.28,0.06 -0.22,0 -0.5,-0.06 -0.5,-0.17 0,-0.72 -0.17,-1.39 -0.61,-1.84 -0.5,-0.56 -1.61,-1 -3.78,-1 -1.22,0 -2.34,0.06 -2.67,0.11 -0.06,0.28 -0.11,1.45 -0.11,3.34 v 4.45 h 2.17 c 2.95,0 3.34,-0.33 3.5,-1.39 0,-0.06 0.17,-0.06 0.33,-0.06 0.22,0 0.45,0 0.45,0.06 -0.06,0.83 -0.17,3.84 -0.17,4.67 0,0 -0.11,0.06 -0.28,0.06 -0.22,0 -0.5,-0.06 -0.5,-0.11 0,-0.56 -0.11,-1.17 -0.45,-1.45 -0.28,-0.28 -0.72,-0.45 -2.95,-0.45 h -2.11 v 1.61 c 0,5.45 0.28,6.12 0.67,6.29 0.39,0.22 1.34,0.39 2.67,0.5 0.06,0.06 0.11,0.22 0.11,0.44 0,0.11 -0.06,0.28 -0.06,0.28 h -8.9 c -0.06,0 -0.06,-0.11 -0.06,-0.28 0,-0.17 0,-0.39 0.11,-0.44 1.17,-0.11 1.72,-0.28 2.11,-0.5 0.33,-0.17 0.61,-0.83 0.61,-6.29 v -4.34 c 0,-5.45 -0.28,-6.23 -0.61,-6.4 -0.39,-0.22 -0.95,-0.39 -2.11,-0.5 -0.11,-0.06 -0.11,-0.22 -0.11,-0.39 0,-0.17 0,-0.28 0.06,-0.28 2.39,0.06 6.34,0.06 8.29,0.06 2.67,0 4.4,-0.11 5.4,-0.11 0.06,0 0.11,0.06 0.11,0.11 -0.05,1.01 -0.16,2.35 -0.33,3.96 z"
           id="path855" />
        <path
           d="m 45.39,69.12 c 0.04,0 0.08,0.2 0.08,0.4 0,0.2 -0.04,0.44 -0.12,0.44 -1.55,0.16 -2.55,0.28 -3.03,0.56 -0.52,0.28 -0.84,1.35 -0.84,8.6 v 10.67 c 0,6.97 -1.35,10.12 -8.28,13.34 l -0.12,0.04 c -0.16,0 -0.32,-0.24 -0.32,-0.44 0,-0.04 0,-0.08 0.04,-0.12 3.5,-2.55 5.34,-4.26 5.34,-12.7 V 79.12 c 0,-7.25 -0.36,-8.32 -0.84,-8.6 -0.48,-0.28 -1.51,-0.4 -3.07,-0.56 -0.08,-0.04 -0.12,-0.28 -0.12,-0.48 0,-0.2 0.04,-0.36 0.08,-0.36 z"
           id="path857" />
        <path
           d="m 64.22,74.62 c 0,0.08 -0.16,0.08 -0.32,0.08 -0.24,0 -0.56,-0.04 -0.56,-0.2 0,-0.96 -0.28,-2.07 -0.92,-2.71 -0.8,-0.88 -1.79,-1.19 -4.06,-1.19 -1.55,0 -3.03,0 -3.38,0.08 -0.12,0.4 -0.16,1.87 -0.16,4.38 v 5.73 h 3.27 c 3.78,0 3.9,-1.08 4.14,-2.51 0,-0.08 0.2,-0.12 0.4,-0.12 0.24,0 0.48,0.04 0.48,0.12 l -0.24,7.17 c 0,0.04 -0.2,0.08 -0.4,0.08 -0.24,0 -0.48,-0.04 -0.48,-0.12 0,-0.72 -0.2,-2.07 -0.56,-2.47 -0.36,-0.36 -0.56,-0.6 -3.39,-0.6 h -3.23 v 2.67 c 0,5.14 0.24,7.49 0.6,7.85 0.36,0.36 1.59,0.52 3.94,0.52 2.47,0 3.38,-0.6 4.1,-1.35 0.48,-0.52 0.96,-1.67 1.31,-3.19 0,-0.08 0.12,-0.08 0.24,-0.08 0.28,0 0.64,0.12 0.64,0.24 -0.2,2.51 -0.64,5.42 -0.68,5.5 -0.2,0.24 -1.39,0.56 -3.07,0.56 -2.39,0 -3.62,-0.12 -6.93,-0.12 -2.59,0 -4.5,0.04 -7.33,0.08 -0.04,0 -0.08,-0.16 -0.08,-0.36 0,-0.2 0.04,-0.52 0.12,-0.56 1.55,-0.16 2.47,-0.28 2.95,-0.56 0.48,-0.28 0.84,-1.35 0.84,-8.6 v -5.81 c 0,-7.25 -0.36,-8.4 -0.84,-8.68 -0.48,-0.28 -1.39,-0.4 -2.95,-0.56 -0.08,-0.04 -0.12,-0.28 -0.12,-0.48 0,-0.2 0.04,-0.36 0.08,-0.36 1.79,0.04 4.26,0.08 6.53,0.08 h 4.38 c 3.35,0 4.66,-0.04 5.85,-0.2 0.2,0 0.24,0.08 0.24,0.16 -0.05,1.39 -0.17,3.38 -0.41,5.53 z"
           id="path859" />
        <path
           d="m 75.97,95.49 c -3.31,0 -6.01,-1.47 -6.37,-1.99 -0.04,-0.08 -0.28,-2.75 -0.28,-4.86 0,-0.52 0,-1 0.04,-1.39 0,-0.12 0.24,-0.16 0.48,-0.16 0.2,0 0.44,0.04 0.44,0.16 0.08,1.51 0.84,3.54 1.39,4.38 1,1.51 2.71,2.51 5.14,2.51 2.75,0 4.26,-1.83 4.26,-4.7 0,-6.29 -10.47,-6.61 -10.47,-13.86 0,-3.78 3.07,-7.01 7.25,-7.01 2.75,0 3.35,0.76 4.7,0.76 0.16,0 0.32,-0.04 0.56,-0.04 0.12,0 0.16,0.04 0.16,0.12 0.04,0.92 0.04,2.27 0.04,3.7 0,0.72 0,1.47 -0.04,2.19 0,0.04 -0.16,0.08 -0.36,0.08 -0.24,0 -0.52,-0.04 -0.56,-0.16 -0.12,-1.59 -0.48,-2.99 -1.23,-3.86 -0.88,-0.96 -1.99,-1.55 -3.7,-1.55 -2.15,0 -3.78,1.87 -3.78,4.34 0,5.38 10.63,6.69 10.63,13.58 -0.01,4.97 -4.28,7.76 -8.3,7.76 z"
           id="path861" />
        <path
           d="m 114.09,69.6 c 0,0.16 -0.04,0.36 -0.12,0.36 -1.55,0.16 -2.35,0.28 -2.79,0.68 -0.32,0.28 -0.68,1.23 -0.68,8.48 v 6.69 c 0,4.78 -3.66,9.36 -10.47,9.36 -6.21,0 -10,-4.1 -10,-9.28 v -6.77 c 0,-7.25 -0.36,-8.32 -0.84,-8.6 -0.52,-0.28 -1.2,-0.4 -2.75,-0.56 -0.08,-0.04 -0.12,-0.28 -0.12,-0.48 0,-0.2 0.04,-0.36 0.08,-0.36 h 10.75 c 0.04,0 0.08,0.16 0.08,0.36 0,0.2 -0.04,0.44 -0.12,0.48 -1.55,0.16 -2.39,0.28 -2.91,0.56 -0.48,0.28 -0.84,1.35 -0.84,8.6 v 6.05 c 0,4.38 2.75,8 8,8 4.9,0 7.33,-3.7 7.33,-7.57 v -6.49 c 0,-7.25 -0.4,-8.2 -0.72,-8.48 -0.44,-0.4 -1.35,-0.52 -2.95,-0.68 -0.08,0 -0.12,-0.2 -0.12,-0.4 0,-0.2 0.04,-0.44 0.12,-0.44 h 8.92 c 0.1,0.01 0.15,0.25 0.15,0.49 z"
           id="path863" />
        <path
           d="m 122.33,95.49 c -3.31,0 -6.01,-1.47 -6.37,-1.99 -0.04,-0.08 -0.28,-2.75 -0.28,-4.86 0,-0.52 0,-1 0.04,-1.39 0,-0.12 0.24,-0.16 0.48,-0.16 0.2,0 0.44,0.04 0.44,0.16 0.08,1.51 0.84,3.54 1.39,4.38 1,1.51 2.71,2.51 5.14,2.51 2.75,0 4.26,-1.83 4.26,-4.7 0,-6.29 -10.47,-6.61 -10.47,-13.86 0,-3.78 3.07,-7.01 7.25,-7.01 2.75,0 3.35,0.76 4.7,0.76 0.16,0 0.32,-0.04 0.56,-0.04 0.12,0 0.16,0.04 0.16,0.12 0.04,0.92 0.04,2.27 0.04,3.7 0,0.72 0,1.47 -0.04,2.19 0,0.04 -0.16,0.08 -0.36,0.08 -0.24,0 -0.52,-0.04 -0.56,-0.16 -0.12,-1.59 -0.48,-2.99 -1.24,-3.86 -0.88,-0.96 -1.99,-1.55 -3.7,-1.55 -2.15,0 -3.78,1.87 -3.78,4.34 0,5.38 10.63,6.69 10.63,13.58 -0.01,4.97 -4.27,7.76 -8.29,7.76 z"
           id="path865" />
        <path
           d="m 164.98,76.45 c -0.24,0 -0.48,-0.08 -0.52,-0.2 -0.16,-1.63 -0.68,-2.99 -1.63,-4.02 -1.2,-1.23 -3.7,-2.27 -6.37,-2.27 -6.93,0 -9.64,5.58 -9.64,11.23 0,6.49 4.1,12.74 10.2,12.74 2.95,0 4.86,-0.84 6.21,-2.51 0.84,-1.04 1.31,-2.23 1.67,-3.42 0,-0.08 0.12,-0.12 0.24,-0.12 0.28,0 0.64,0.12 0.64,0.24 -0.12,1.67 -0.84,5.38 -0.92,5.5 -0.12,0.2 -2.79,1.87 -7.93,1.87 -8.48,0 -13.86,-5.93 -13.86,-13.14 0,-6.81 4.9,-13.78 13.78,-13.78 4.06,0 6.29,1.23 7.73,1.23 0.16,0 0.32,-0.04 0.44,-0.04 0.16,0 0.24,0.08 0.24,0.16 l 0.12,6.41 c 0,0.08 -0.2,0.12 -0.4,0.12 z"
           id="path867" />
        <path
           d="m 197.68,69.48 c 0,0.2 -0.04,0.44 -0.12,0.48 -1.55,0.16 -2.23,0.28 -2.75,0.56 -0.48,0.28 -0.84,1.31 -0.84,8.6 v 5.77 c 0,7.29 0.36,8.4 0.84,8.64 0.52,0.28 1.2,0.4 2.75,0.56 0.08,0 0.12,0.24 0.12,0.48 0,0.2 -0.04,0.36 -0.08,0.36 h -10.55 c -0.04,0 -0.08,-0.16 -0.08,-0.36 0,-0.24 0.04,-0.48 0.12,-0.48 1.55,-0.16 2.23,-0.28 2.75,-0.56 0.48,-0.24 0.84,-1.35 0.84,-8.64 v -2.43 h -14.66 v 2.43 c 0,7.29 0.36,8.36 0.88,8.64 0.48,0.24 1.15,0.4 2.71,0.56 0.08,0 0.12,0.24 0.12,0.48 0,0.2 -0.04,0.36 -0.08,0.36 H 169.1 c -0.04,0 -0.08,-0.16 -0.08,-0.36 0,-0.24 0.04,-0.48 0.12,-0.48 1.55,-0.16 2.27,-0.32 2.75,-0.56 0.48,-0.28 0.84,-1.35 0.84,-8.64 v -5.77 c 0,-7.29 -0.36,-8.32 -0.84,-8.6 -0.48,-0.28 -1.19,-0.4 -2.75,-0.56 -0.08,-0.04 -0.12,-0.28 -0.12,-0.48 0,-0.2 0.04,-0.36 0.08,-0.36 h 10.55 c 0.04,0 0.08,0.16 0.08,0.36 0,0.2 -0.04,0.44 -0.12,0.48 -1.55,0.16 -2.23,0.28 -2.71,0.56 -0.52,0.28 -0.88,1.31 -0.88,8.6 v 1.87 h 14.66 v -1.87 c 0,-7.29 -0.36,-8.32 -0.84,-8.6 -0.52,-0.28 -1.2,-0.4 -2.75,-0.56 -0.08,-0.04 -0.12,-0.28 -0.12,-0.48 0,-0.2 0.04,-0.36 0.08,-0.36 h 10.55 c 0.04,0 0.08,0.16 0.08,0.36 z"
           id="path869" />
        <path
           d="m 245.75,95.49 c -3.31,0 -6.01,-1.47 -6.37,-1.99 -0.04,-0.08 -0.28,-2.75 -0.28,-4.86 0,-0.52 0,-1 0.04,-1.39 0,-0.12 0.24,-0.16 0.48,-0.16 0.2,0 0.44,0.04 0.44,0.16 0.08,1.51 0.84,3.54 1.39,4.38 1,1.51 2.71,2.51 5.14,2.51 2.75,0 4.26,-1.83 4.26,-4.7 0,-6.29 -10.47,-6.61 -10.47,-13.86 0,-3.78 3.07,-7.01 7.25,-7.01 2.75,0 3.35,0.76 4.7,0.76 0.16,0 0.32,-0.04 0.56,-0.04 0.12,0 0.16,0.04 0.16,0.12 0.04,0.92 0.04,2.27 0.04,3.7 0,0.72 0,1.47 -0.04,2.19 0,0.04 -0.16,0.08 -0.36,0.08 -0.24,0 -0.52,-0.04 -0.56,-0.16 -0.12,-1.59 -0.48,-2.99 -1.23,-3.86 -0.88,-0.96 -1.99,-1.55 -3.7,-1.55 -2.15,0 -3.78,1.87 -3.78,4.34 0,5.38 10.63,6.69 10.63,13.58 -0.02,4.97 -4.28,7.76 -8.3,7.76 z"
           id="path871" />
        <path
           d="m 278.96,75.46 c 0,0.08 -0.2,0.16 -0.4,0.16 -0.24,0 -0.48,-0.08 -0.48,-0.24 0,-1 -0.12,-2.91 -0.8,-3.62 -0.8,-0.84 -2.43,-1.51 -5.93,-1.51 -0.92,0 -1.39,0 -1.79,0.08 -0.12,0.4 -0.16,2.31 -0.16,4.82 v 9.8 c 0,7.25 0.36,8.32 0.84,8.6 0.48,0.28 1.47,0.4 3.07,0.56 0.08,0.04 0.12,0.28 0.12,0.48 0,0.2 -0.04,0.36 -0.08,0.36 h -11.23 c -0.04,0 -0.08,-0.16 -0.08,-0.32 0,-0.24 0.04,-0.48 0.16,-0.52 1.55,-0.16 2.55,-0.28 3.03,-0.56 0.52,-0.28 0.84,-1.35 0.84,-8.6 v -9.8 c 0,-2.51 -0.04,-4.42 -0.16,-4.82 -0.4,-0.08 -1.08,-0.08 -1.99,-0.08 -3.74,0 -5.02,0.4 -5.93,1.51 -0.64,0.76 -1.04,2.15 -1.31,3.7 0,0.12 -0.16,0.16 -0.32,0.16 -0.24,0 -0.56,-0.08 -0.56,-0.24 0.24,-2.07 0.48,-5.1 0.6,-6.45 0,-0.08 0.12,-0.16 0.32,-0.16 h 0.16 c 1.39,0.24 3.94,0.36 10.87,0.36 9.52,0 10.39,-0.2 11.11,-0.44 0.04,0 0.12,-0.04 0.16,-0.04 0.16,0 0.28,0.12 0.28,0.2 -0.02,1.51 -0.1,4.49 -0.34,6.61 z"
           id="path873" />
        <path
           d="m 42,120.93 c -4.08,0 -7.04,-2.93 -7.04,-6.56 0,-3.45 2.97,-6.71 7.3,-6.71 4.08,0 7.04,2.82 7.04,6.45 0.01,3.44 -2.96,6.82 -7.3,6.82 z m -0.14,-12.28 c -3.26,0 -4.23,2.86 -4.23,5.19 0,3.04 1.74,6.08 4.78,6.08 3.26,0 4.23,-2.97 4.23,-5.3 0,-3.04 -1.78,-5.97 -4.78,-5.97 z"
           id="path875" />
        <path
           d="m 55.46,115.88 c 0,3.63 0.19,3.78 0.45,3.89 0.26,0.15 0.85,0.26 1.67,0.33 0.04,0.04 0.07,0.15 0.07,0.3 0,0.07 -0.04,0.33 -0.04,0.33 h -6.27 c -0.04,0 -0.04,-0.26 -0.04,-0.37 0,-0.11 0,-0.22 0.07,-0.26 0.82,-0.07 1.11,-0.19 1.37,-0.33 0.26,-0.11 0.41,-0.41 0.41,-4.04 v -2.89 c 0,-3.63 -0.15,-3.93 -0.41,-4.04 -0.26,-0.15 -0.74,-0.3 -1.56,-0.41 -0.07,0 -0.07,-0.15 -0.07,-0.26 0,-0.11 0.04,-0.41 0.07,-0.41 h 0.48 c 1.37,0 2.74,0.11 4.12,0.11 1,0 3.6,-0.11 4.82,-0.11 0.15,0 0.33,0.04 0.37,0.15 -0.07,0.67 -0.11,1.89 -0.22,2.93 0,0.04 -0.3,0.07 -0.41,0.07 -0.15,0 -0.3,-0.04 -0.3,-0.11 0,-0.52 -0.11,-1.08 -0.41,-1.41 -0.33,-0.33 -0.93,-0.59 -2.37,-0.59 -0.82,0 -1.52,0.04 -1.74,0.04 -0.07,0.22 -0.07,1.78 -0.07,2.86 v 2.08 h 1.19 c 1.97,0 2.22,-0.22 2.34,-0.93 0,-0.04 0.15,-0.04 0.26,-0.04 0.11,0 0.33,0 0.33,0.04 -0.04,0.56 -0.11,2.78 -0.11,3.3 0,0.04 -0.22,0.07 -0.33,0.07 -0.15,0 -0.26,-0.04 -0.26,-0.07 0,-0.37 -0.07,-0.82 -0.3,-1 -0.19,-0.15 -0.22,-0.37 -1.71,-0.37 h -1.41 v 1.14 z"
           id="path877" />
        <path
           d="m 75.48,108.13 c 0,0.11 -0.04,0.3 -0.07,0.3 -0.82,0.11 -1.15,0.22 -1.41,0.37 -0.26,0.11 -0.45,0.41 -0.45,4.04 v 3.6 c 0,2.82 0,3.37 1.85,3.37 1.15,0 2.22,-0.15 2.71,-0.71 0.45,-0.52 0.74,-1.37 0.89,-2 0,-0.04 0.3,-0.04 0.37,-0.04 0.15,0 0.37,0.04 0.37,0.11 -0.11,1.04 -0.41,2.97 -0.59,3.26 -0.15,0.22 -0.37,0.41 -0.89,0.41 -1,0 -3.04,-0.11 -4.49,-0.11 -1.48,0 -3.26,0.07 -4.52,0.11 -0.04,0 -0.04,-0.22 -0.04,-0.33 0,-0.11 0,-0.33 0.07,-0.37 0.82,-0.07 1.3,-0.22 1.56,-0.37 0.26,-0.11 0.41,-0.41 0.41,-4.04 v -2.89 c 0,-3.63 -0.15,-3.93 -0.41,-4.04 -0.26,-0.15 -0.74,-0.26 -1.56,-0.37 -0.07,0 -0.07,-0.11 -0.07,-0.22 0,-0.11 0,-0.37 0.04,-0.37 h 6.19 c 0,0 0.04,0.22 0.04,0.29 z"
           id="path879" />
        <path
           d="m 81.67,119.7 c 0.44,-0.33 0.89,-1.15 1.41,-2.48 l 3.75,-9.6 c 0.04,-0.07 0.45,-0.11 0.67,-0.11 0.22,0 0.74,0.04 0.74,0.11 l 3.89,9.86 c 0.33,0.82 0.93,2.04 1.3,2.22 0.3,0.22 0.63,0.33 1.22,0.41 0.04,0 0.07,0.15 0.07,0.26 0,0.11 -0.04,0.37 -0.07,0.37 h -5.56 c -0.04,0 -0.04,-0.26 -0.04,-0.37 0,-0.07 0,-0.26 0.04,-0.26 0.78,-0.11 1.3,-0.26 1.3,-0.56 0,-0.37 -0.26,-1.19 -0.96,-2.89 h -4.6 l -0.22,0.59 c -0.33,0.85 -0.7,1.71 -0.7,2.19 0,0.37 0.63,0.56 1.52,0.67 0.04,0 0.04,0.18 0.04,0.26 0,0.11 0,0.37 -0.04,0.37 h -5.08 c -0.04,0 -0.04,-0.26 -0.04,-0.37 0,-0.07 0,-0.26 0.04,-0.26 0.62,-0.07 1.03,-0.19 1.32,-0.41 z m 3.49,-4.04 h 3.86 l -2,-5 z"
           id="path881" />
        <path
           d="m 102.21,119.78 c 0.26,0.15 0.67,0.26 1.48,0.33 0.04,0.04 0.07,0.15 0.07,0.3 0,0.07 -0.04,0.33 -0.04,0.33 h -6.19 c -0.04,0 -0.04,-0.26 -0.04,-0.37 0,-0.11 0,-0.22 0.07,-0.26 0.82,-0.07 1.22,-0.19 1.48,-0.33 0.26,-0.11 0.41,-0.41 0.41,-4.04 v -4.38 c 0,-1.26 0,-2.34 -0.07,-2.56 -0.19,0 -0.56,-0.04 -1,-0.04 -2.11,0 -2.52,0.3 -3,0.74 -0.33,0.3 -0.52,1.11 -0.63,1.59 0,0.04 -0.04,0.04 -0.11,0.04 -0.15,0 -0.59,-0.07 -0.59,-0.11 l 0.3,-3.34 c 0,-0.04 0.07,-0.15 0.15,-0.15 0.74,0.11 2.6,0.3 6.16,0.3 4.89,0 5.82,-0.19 6.19,-0.33 0.07,0 0.15,0.11 0.15,0.15 0,0.78 -0.04,2.37 -0.19,3.45 0,0 -0.3,0.04 -0.41,0.04 -0.15,0 -0.3,-0.04 -0.3,-0.07 0,-0.52 -0.11,-1.26 -0.37,-1.56 -0.37,-0.41 -0.74,-0.74 -2.97,-0.74 -0.44,0 -0.7,0.04 -0.89,0.04 -0.07,0.22 -0.11,1.3 -0.11,2.56 v 4.38 c 0.01,3.62 0.19,3.91 0.45,4.03 z"
           id="path883" />
        <path
           d="m 116.56,119.78 c 0.26,0.15 0.67,0.26 1.48,0.33 0.04,0.04 0.07,0.15 0.07,0.3 0,0.07 -0.04,0.33 -0.04,0.33 h -6.19 c -0.04,0 -0.04,-0.26 -0.04,-0.37 0,-0.11 0,-0.22 0.07,-0.26 0.82,-0.07 1.22,-0.19 1.48,-0.33 0.26,-0.11 0.41,-0.41 0.41,-4.04 v -4.38 c 0,-1.26 0,-2.34 -0.07,-2.56 -0.19,0 -0.56,-0.04 -1,-0.04 -2.11,0 -2.52,0.3 -3,0.74 -0.33,0.3 -0.52,1.11 -0.63,1.59 0,0.04 -0.04,0.04 -0.11,0.04 -0.15,0 -0.59,-0.07 -0.59,-0.11 l 0.3,-3.34 c 0,-0.04 0.07,-0.15 0.15,-0.15 0.74,0.11 2.6,0.3 6.16,0.3 4.89,0 5.82,-0.19 6.19,-0.33 0.07,0 0.15,0.11 0.15,0.15 0,0.78 -0.04,2.37 -0.19,3.45 0,0 -0.3,0.04 -0.41,0.04 -0.15,0 -0.3,-0.04 -0.3,-0.07 0,-0.52 -0.11,-1.26 -0.37,-1.56 -0.37,-0.41 -0.74,-0.74 -2.97,-0.74 -0.44,0 -0.7,0.04 -0.89,0.04 -0.07,0.22 -0.11,1.3 -0.11,2.56 v 4.38 c 0,3.62 0.19,3.91 0.45,4.03 z"
           id="path885" />
        <path
           d="m 127.38,111.54 v 1.93 h 1.45 c 1.96,0 2.22,-0.52 2.34,-1.22 0,-0.04 0.15,-0.04 0.26,-0.04 0.11,0 0.33,0 0.33,0.04 -0.04,0.56 -0.11,3.15 -0.11,3.67 0,0.04 -0.22,0.07 -0.33,0.07 -0.15,0 -0.26,-0.04 -0.26,-0.07 0,-0.37 -0.07,-0.89 -0.3,-1.08 -0.18,-0.15 -0.48,-0.37 -1.96,-0.37 h -1.41 v 2.15 c 0,1.74 0.19,2.52 0.45,2.82 0.26,0.22 0.52,0.37 1.74,0.37 1.26,0 1.97,-0.3 2.34,-0.71 0.3,-0.3 0.52,-0.93 0.67,-1.59 0,-0.04 0.26,-0.04 0.3,-0.04 0.11,0 0.3,0.07 0.26,0.11 -0.07,1.04 -0.26,2.56 -0.41,2.85 -0.15,0.22 -0.26,0.41 -0.78,0.41 -1.26,0 -2.59,-0.11 -5.3,-0.11 -0.74,0 -3.23,0.07 -3.56,0.07 -0.04,0 -0.04,-0.26 -0.04,-0.37 0,-0.11 0,-0.26 0.07,-0.3 0.82,-0.07 1.3,-0.22 1.56,-0.37 0.26,-0.11 0.41,-0.41 0.41,-4.04 v -2.89 c 0,-3.63 -0.15,-3.93 -0.41,-4.04 -0.26,-0.15 -0.74,-0.3 -1.56,-0.41 -0.07,0 -0.07,-0.15 -0.07,-0.26 0,-0.11 0.04,-0.41 0.07,-0.41 h 0.48 c 1.37,0 2.74,0.11 4.12,0.11 1,0 3.26,-0.11 4.49,-0.11 0.15,0 0.33,0.04 0.37,0.15 -0.07,0.67 -0.11,1.78 -0.22,2.82 0,0.04 -0.3,0.07 -0.41,0.07 -0.15,0 -0.3,-0.04 -0.3,-0.11 0,-0.52 -0.11,-1.08 -0.41,-1.41 -0.33,-0.33 -0.93,-0.48 -2.37,-0.48 -0.82,0 -1.19,0.04 -1.41,0.04 -0.09,0.23 -0.09,1.68 -0.09,2.75 z"
           id="path887" />
        <path
           d="m 137.25,112.29 c 0,-3.08 -0.22,-3.41 -0.48,-3.52 -0.26,-0.15 -0.59,-0.26 -1.41,-0.37 -0.07,0 -0.07,-0.11 -0.07,-0.22 0,-0.11 0,-0.41 0.04,-0.41 h 0.26 c 0.52,0 2.37,0.07 2.86,0.07 1.93,0 2.41,-0.11 3.37,-0.11 2.89,0 4.52,1.71 4.52,3.34 0,1.59 -1.15,3.12 -2.63,3.75 2.74,3.97 4.12,5.15 5.71,5.15 H 150 c 0.04,-0.04 0.22,0.63 0.22,0.7 -0.45,0.07 -1.19,0.11 -1.67,0.11 -1.26,0 -2.48,-0.19 -3.3,-0.7 -1.04,-0.71 -2.19,-2 -3.82,-4.71 h -0.74 c -0.48,0 -0.59,0 -1.15,-0.04 v 1.04 c 0,3 0.19,3.3 0.44,3.41 0.26,0.15 0.67,0.26 1.48,0.33 0.04,0.04 0.07,0.15 0.07,0.3 0,0.07 -0.04,0.33 -0.04,0.33 h -6.19 c -0.04,0 -0.04,-0.26 -0.04,-0.37 0,-0.11 0,-0.22 0.07,-0.26 0.82,-0.07 1.22,-0.19 1.48,-0.33 0.26,-0.11 0.41,-0.41 0.41,-3.37 v -4.12 z m 3.85,-3.6 c -0.71,0 -1.15,0.11 -1.22,0.26 -0.15,0.15 -0.33,1.04 -0.33,3.67 0,1.19 0.07,1.33 0.19,1.45 0.22,0.18 0.63,0.33 1.59,0.33 1.52,0 2.34,-1.15 2.34,-2.97 -0.01,-1.48 -0.6,-2.74 -2.57,-2.74 z"
           id="path889" />
        <path
           d="m 156.38,113.18 c 0.18,0 0.22,0.11 0.22,0.22 0,0.15 -0.11,0.33 -0.18,0.45 l -0.45,0.85 c -0.22,0.33 -0.37,0.48 -0.89,0.48 -1.56,0 -2.71,-0.15 -4.12,-0.15 -0.93,0 -0.89,0.3 -1.19,0.3 -0.19,0 -0.22,-0.11 -0.22,-0.22 0,-0.15 0.22,-0.52 0.3,-0.63 l 0.37,-0.67 c 0.22,-0.33 0.33,-0.48 0.82,-0.48 1.08,0 2.82,0.15 4,0.15 1.08,-0.01 1.04,-0.3 1.34,-0.3 z"
           id="path891" />
        <path
           d="m 160.86,112.29 c 0,-3.08 -0.22,-3.41 -0.48,-3.52 -0.26,-0.15 -0.59,-0.26 -1.41,-0.37 -0.07,0 -0.07,-0.11 -0.07,-0.22 0,-0.11 0,-0.41 0.04,-0.41 h 0.26 c 0.45,0 1.82,0.07 2.86,0.07 1.56,0 3.23,-0.11 4.04,-0.11 4.49,0 7.19,2.82 7.19,6.42 0,1.71 -0.82,3.37 -2.08,4.6 -1.41,1.37 -3.11,2.11 -5.71,2.11 -0.74,0 -1.89,-0.11 -2.71,-0.11 -1.37,0 -2.93,0.04 -3.86,0.04 -0.04,0 -0.04,-0.26 -0.04,-0.37 0,-0.11 0,-0.22 0.07,-0.26 0.82,-0.07 1.22,-0.22 1.48,-0.37 0.26,-0.11 0.41,-0.41 0.41,-4.04 v -3.46 z m 2.3,-0.45 v 4.38 c 0,2.04 0.19,2.85 0.44,3.11 0.37,0.37 0.78,0.48 1.85,0.48 3.23,0 5.15,-1.59 5.15,-5.34 0,-3.04 -1.71,-5.75 -5.01,-5.75 -1.56,0 -2,0.22 -2.15,0.41 -0.09,0.15 -0.28,0.71 -0.28,2.71 z"
           id="path893" />
        <path
           d="m 174.91,119.7 c 0.45,-0.33 0.89,-1.15 1.41,-2.48 l 3.75,-9.6 c 0.04,-0.07 0.44,-0.11 0.67,-0.11 0.23,0 0.74,0.04 0.74,0.11 l 3.89,9.86 c 0.33,0.82 0.93,2.04 1.3,2.22 0.3,0.22 0.63,0.33 1.22,0.41 0.04,0 0.07,0.15 0.07,0.26 0,0.11 -0.04,0.37 -0.07,0.37 h -5.56 c -0.04,0 -0.04,-0.26 -0.04,-0.37 0,-0.07 0,-0.26 0.04,-0.26 0.78,-0.11 1.3,-0.26 1.3,-0.56 0,-0.37 -0.26,-1.19 -0.96,-2.89 h -4.6 l -0.22,0.59 c -0.33,0.85 -0.71,1.71 -0.71,2.19 0,0.37 0.63,0.56 1.52,0.67 0.04,0 0.04,0.18 0.04,0.26 0,0.11 0,0.37 -0.04,0.37 h -5.08 c -0.04,0 -0.04,-0.26 -0.04,-0.37 0,-0.07 0,-0.26 0.04,-0.26 0.63,-0.07 1.04,-0.19 1.33,-0.41 z m 3.49,-4.04 h 3.86 l -2,-5 z"
           id="path895" />
        <path
           d="m 192.19,115.81 v -0.44 c -0.48,-0.82 -1.15,-1.93 -1.59,-2.6 l -1.15,-1.74 c -1.3,-2 -1.63,-2.22 -2,-2.37 -0.33,-0.11 -0.67,-0.19 -1.26,-0.22 -0.04,0 -0.07,-0.22 -0.07,-0.33 0,-0.11 0.04,-0.26 0.07,-0.26 h 5.49 c 0.04,0 0.07,0.11 0.07,0.26 0,0.11 -0.04,0.33 -0.07,0.33 -0.44,0.04 -0.89,0.04 -0.89,0.26 0,0.19 0.19,0.52 1.19,2.15 l 1.85,3 1.93,-2.97 c 0.78,-1.22 1,-1.71 1,-2 0,-0.11 -0.04,-0.19 -0.11,-0.22 -0.19,-0.11 -0.37,-0.19 -0.93,-0.22 -0.04,0 -0.04,-0.11 -0.04,-0.22 0,-0.15 0,-0.37 0.04,-0.37 h 4.23 c 0.04,0 0.04,0.22 0.04,0.33 0,0.11 0,0.26 -0.04,0.26 -0.59,0.04 -0.78,0.11 -1.08,0.22 -0.52,0.26 -0.89,0.71 -1.96,2.37 l -2.41,3.75 v 0.96 c 0,3.63 0.19,3.93 0.45,4.04 0.26,0.15 0.67,0.26 1.48,0.33 0.04,0.04 0.07,0.15 0.07,0.3 0,0.07 -0.04,0.33 -0.04,0.33 h -6.27 c -0.04,0 -0.04,-0.26 -0.04,-0.37 0,-0.11 0,-0.22 0.07,-0.26 0.82,-0.07 1.3,-0.19 1.56,-0.33 0.26,-0.12 0.41,-0.34 0.41,-3.97 z"
           id="path897" />
        <path
           d="m 209.5,120.93 c -1.93,0 -3.56,-0.96 -3.6,-1.19 -0.07,-0.37 -0.11,-0.85 -0.11,-1.41 0,-0.48 0.04,-1.41 0.07,-1.89 0,-0.04 0.19,-0.07 0.33,-0.07 0.11,0 0.33,0.04 0.33,0.07 0.07,0.78 0.37,1.71 0.67,2.15 0.59,0.78 1.3,1.33 2.48,1.33 1.22,0 2.22,-0.74 2.22,-2.11 0,-2.93 -5.78,-3.37 -5.78,-6.67 0,-2.04 1.74,-3.49 4.34,-3.49 1.59,0 2.34,0.37 3.12,0.37 0.07,0 0.15,0.04 0.15,0.07 -0.04,0.37 -0.04,0.78 -0.04,1.26 v 1.74 c 0,0.04 -0.19,0.07 -0.3,0.07 -0.11,0 -0.41,-0.04 -0.41,-0.07 -0.04,-0.63 -0.33,-1.41 -0.67,-1.74 -0.45,-0.45 -1.41,-0.71 -2.04,-0.71 -0.82,0 -1.78,0.56 -1.78,1.78 0,2.48 5.78,3.37 5.78,6.64 0.03,2.49 -2.01,3.87 -4.76,3.87 z"
           id="path899" />
        <path
           d="m 216.47,119.7 c 0.44,-0.33 0.89,-1.15 1.41,-2.48 l 3.75,-9.6 c 0.04,-0.07 0.45,-0.11 0.67,-0.11 0.22,0 0.74,0.04 0.74,0.11 l 3.89,9.86 c 0.33,0.82 0.93,2.04 1.3,2.22 0.3,0.22 0.63,0.33 1.22,0.41 0.04,0 0.07,0.15 0.07,0.26 0,0.11 -0.04,0.37 -0.07,0.37 h -5.56 c -0.04,0 -0.04,-0.26 -0.04,-0.37 0,-0.07 0,-0.26 0.04,-0.26 0.78,-0.11 1.3,-0.26 1.3,-0.56 0,-0.37 -0.26,-1.19 -0.96,-2.89 h -4.6 l -0.22,0.59 c -0.33,0.85 -0.7,1.71 -0.7,2.19 0,0.37 0.63,0.56 1.52,0.67 0.04,0 0.04,0.18 0.04,0.26 0,0.11 0,0.37 -0.04,0.37 h -5.08 c -0.04,0 -0.04,-0.26 -0.04,-0.37 0,-0.07 0,-0.26 0.04,-0.26 0.62,-0.07 1.03,-0.19 1.32,-0.41 z m 3.49,-4.04 h 3.86 l -2,-5 z"
           id="path901" />
        <path
           d="m 234.49,115.73 c 0,3.63 0.19,3.93 0.44,4.04 0.26,0.15 0.67,0.26 1.48,0.33 0.04,0.04 0.07,0.15 0.07,0.3 0,0.07 -0.04,0.33 -0.04,0.33 h -6.27 c -0.04,0 -0.04,-0.26 -0.04,-0.37 0,-0.11 0,-0.22 0.07,-0.26 0.82,-0.07 1.3,-0.19 1.56,-0.33 0.26,-0.11 0.41,-0.41 0.41,-4.04 v -2.89 c 0,-3.63 -0.22,-3.93 -0.48,-4.04 -0.26,-0.15 -0.67,-0.26 -1.48,-0.37 -0.07,0 -0.07,-0.11 -0.07,-0.22 0,-0.11 0,-0.37 0.04,-0.37 h 6.27 c 0,0 0.04,0.22 0.04,0.3 0,0.11 -0.04,0.3 -0.07,0.3 -0.82,0.11 -1.22,0.22 -1.48,0.37 -0.26,0.11 -0.44,0.41 -0.44,4.04 v 2.88 z"
           id="path903" />
        <path
           d="m 252.32,108.8 c -0.19,0.07 -0.44,0.41 -0.44,2.37 v 4.56 c 0,1.67 0,3.45 0.11,5.01 0,0.07 -0.56,0.15 -0.74,0.15 -0.15,0 -0.3,-0.04 -0.33,-0.07 l -9.49,-9.23 0.07,5.78 c 0.04,2.15 0.33,2.34 0.52,2.41 0.26,0.15 0.67,0.26 1.48,0.33 0.04,0.04 0.07,0.15 0.07,0.3 0,0.07 -0.04,0.33 -0.04,0.33 h -5.38 c -0.04,0 -0.04,-0.26 -0.04,-0.37 0,-0.11 0,-0.22 0.07,-0.26 0.82,-0.07 1.22,-0.19 1.48,-0.33 0.19,-0.07 0.44,-0.41 0.44,-2.37 v -4.56 c 0,-1.67 -0.18,-4.6 -0.18,-5.08 0,-0.07 0.11,-0.15 0.44,-0.15 0.15,0 0.52,0.04 0.52,0.07 l 9.68,9.57 -0.07,-6.04 c -0.04,-2.15 -0.33,-2.34 -0.52,-2.41 -0.26,-0.15 -0.67,-0.26 -1.48,-0.33 -0.04,-0.04 -0.07,-0.15 -0.07,-0.3 0,-0.07 0.04,-0.33 0.04,-0.33 h 5.38 c 0.04,0 0.04,0.26 0.04,0.37 0,0.11 0,0.22 -0.07,0.26 -0.82,0.06 -1.23,0.17 -1.49,0.32 z"
           id="path905" />
        <path
           d="m 263.26,119.78 c 0.26,0.15 0.67,0.26 1.48,0.33 0.04,0.04 0.07,0.15 0.07,0.3 0,0.07 -0.04,0.33 -0.04,0.33 h -6.19 c -0.04,0 -0.04,-0.26 -0.04,-0.37 0,-0.11 0,-0.22 0.07,-0.26 0.82,-0.07 1.22,-0.19 1.48,-0.33 0.26,-0.11 0.41,-0.41 0.41,-4.04 v -4.38 c 0,-1.26 0,-2.34 -0.07,-2.56 -0.18,0 -0.56,-0.04 -1,-0.04 -2.11,0 -2.52,0.3 -3,0.74 -0.33,0.3 -0.52,1.11 -0.63,1.59 0,0.04 -0.04,0.04 -0.11,0.04 -0.15,0 -0.59,-0.07 -0.59,-0.11 l 0.3,-3.34 c 0,-0.04 0.07,-0.15 0.15,-0.15 0.74,0.11 2.59,0.3 6.15,0.3 4.89,0 5.82,-0.19 6.19,-0.33 0.07,0 0.15,0.11 0.15,0.15 0,0.78 -0.04,2.37 -0.19,3.45 0,0 -0.3,0.04 -0.41,0.04 -0.15,0 -0.3,-0.04 -0.3,-0.07 0,-0.52 -0.11,-1.26 -0.37,-1.56 -0.37,-0.41 -0.74,-0.74 -2.97,-0.74 -0.45,0 -0.71,0.04 -0.89,0.04 -0.07,0.22 -0.11,1.3 -0.11,2.56 v 4.38 c 0.02,3.62 0.2,3.91 0.46,4.03 z"
           id="path907" />
        <path
           d="m 273.27,120.93 c -1.93,0 -3.56,-0.96 -3.6,-1.19 -0.07,-0.37 -0.11,-0.85 -0.11,-1.41 0,-0.48 0.04,-1.41 0.07,-1.89 0,-0.04 0.19,-0.07 0.33,-0.07 0.11,0 0.33,0.04 0.33,0.07 0.07,0.78 0.37,1.71 0.67,2.15 0.59,0.78 1.3,1.33 2.48,1.33 1.22,0 2.22,-0.74 2.22,-2.11 0,-2.93 -5.78,-3.37 -5.78,-6.67 0,-2.04 1.74,-3.49 4.34,-3.49 1.59,0 2.34,0.37 3.11,0.37 0.07,0 0.15,0.04 0.15,0.07 -0.04,0.37 -0.04,0.78 -0.04,1.26 v 1.74 c 0,0.04 -0.19,0.07 -0.3,0.07 -0.11,0 -0.41,-0.04 -0.41,-0.07 -0.04,-0.63 -0.33,-1.41 -0.67,-1.74 -0.44,-0.45 -1.41,-0.71 -2.04,-0.71 -0.82,0 -1.78,0.56 -1.78,1.78 0,2.48 5.78,3.37 5.78,6.64 0.03,2.49 -2.01,3.87 -4.75,3.87 z"
           id="path909" />
      </g>
      <path
         d="m 233.01,93.54 c -0.48,-0.28 -0.84,-1.35 -0.84,-8.6 v -5.81 c 0,-7.25 0.36,-8.32 0.84,-8.6 0.48,-0.28 1.47,-0.4 3.07,-0.56 0.08,-0.04 0.12,-0.28 0.12,-0.48 0,-0.2 -0.04,-0.36 -0.08,-0.36 h -11.19 c -0.08,0 -0.12,0.16 -0.12,0.36 0,0.2 0.04,0.44 0.16,0.48 1.55,0.16 2.55,0.28 3.03,0.56 0.52,0.28 0.84,1.35 0.84,8.6 v 5.81 c 0,7.25 -0.32,8.32 -0.84,8.6 -0.21,0.12 -0.53,0.21 -0.94,0.29 -0.7,0.12 -0.96,0.11 -1.49,0.11 -2.79,0 -5.7,-3.07 -10.99,-11.03 2.79,-1.71 4.78,-4.34 4.78,-7.53 0,-3.03 -2.99,-6.33 -8.92,-6.33 -1.79,0 -3.39,0.08 -4.86,0.08 -1.47,0 -3.5,-0.08 -5.26,-0.08 -0.08,0 -0.12,0.2 -0.12,0.4 0,0.2 0.04,0.44 0.16,0.44 1.55,0.16 2.23,0.28 2.71,0.56 0.52,0.28 0.84,1.43 0.84,8.68 v 5.81 c 0,7.25 -0.32,8.32 -0.84,8.6 -0.48,0.28 -1.15,0.4 -2.71,0.56 -0.12,0.04 -0.16,0.24 -0.16,0.44 0,0.2 0.04,0.4 0.12,0.4 h 11.27 c 0.04,0 0.08,-0.16 0.08,-0.36 0,-0.2 -0.04,-0.44 -0.12,-0.48 -1.75,-0.2 -2.95,-0.28 -3.46,-0.56 -0.48,-0.28 -0.84,-1.35 -0.84,-8.6 V 83.9 c 0.88,0.04 1.55,0.08 2.31,0.08 0.56,0 1.15,-0.04 1.95,-0.04 3.23,5.46 5.38,8.32 7.41,9.72 1.55,1.04 3.08,1.28 5.51,1.28 0.92,0 1.65,0 2.53,0 h 9.17 c 0.04,0 0.08,-0.16 0.08,-0.36 0,-0.2 -0.04,-0.44 -0.12,-0.48 -1.61,-0.17 -2.61,-0.29 -3.08,-0.56 z m -22.23,-11 c -1.91,0 -3.03,-0.16 -3.31,-0.44 -0.16,-0.16 -0.24,-0.6 -0.24,-2.99 0,-5.77 0.24,-8.12 0.4,-8.36 0.16,-0.16 1.35,-0.36 2.71,-0.36 3.82,0 5.22,2.75 5.22,6.57 0,3.12 -1.51,5.58 -4.78,5.58 z"
         id="path913" />
    </g>
    <g
       id="g8229">
      <rect
         style="font-variation-settings:'wght' 900;opacity:1;fill:#000000;fill-opacity:1;stroke:none;stroke-width:0.485232;stroke-linecap:round;stroke-linejoin:round;paint-order:stroke fill markers;stop-color:#000000"
         id="rect7988"
         width="16.413073"
         height="2.0359676"
         x="230.87712"
         y="74.056183"
         rx="1.0179838"
         ry="1.0179838" />
      <rect
         style="font-variation-settings:'wght' 900;opacity:1;fill:#000000;fill-opacity:1;stroke:none;stroke-width:0.485232;stroke-linecap:round;stroke-linejoin:round;paint-order:stroke fill markers;stop-color:#000000"
         id="rect8120"
         width="16.413073"
         height="2.0359676"
         x="230.87712"
         y="78.250198"
         rx="1.0179838"
         ry="1.0179838" />
      <rect
         style="font-variation-settings:'wght' 900;opacity:1;fill:#000000;fill-opacity:1;stroke:none;stroke-width:0.364082;stroke-linecap:round;stroke-linejoin:round;paint-order:stroke fill markers;stop-color:#000000"
         id="rect8122"
         width="9.2403345"
         height="2.0359676"
         x="230.87712"
         y="82.444214"
         rx="1.0179838"
         ry="1.0179838" />
    </g>
  </g>
</svg>
