<?xml version="1.0" encoding="UTF-8" standalone="no"?>
<!-- Created with Inkscape (http://www.inkscape.org/) -->

<svg
   xmlns:dc="http://purl.org/dc/elements/1.1/"
   xmlns:cc="http://creativecommons.org/ns#"
   xmlns:rdf="http://www.w3.org/1999/02/22-rdf-syntax-ns#"
   xmlns:svg="http://www.w3.org/2000/svg"
   xmlns="http://www.w3.org/2000/svg"
   xmlns:sodipodi="http://sodipodi.sourceforge.net/DTD/sodipodi-0.dtd"
   xmlns:inkscape="http://www.inkscape.org/namespaces/inkscape"
   width="2160"
   height="1080"
   viewBox="0 0 2160 1080"
   version="1.1"
   id="svg8"
   inkscape:version="0.92.4 5da689c313, 2019-01-14"
   sodipodi:docname="site.svg">
  <defs
     id="defs2" />
  <sodipodi:namedview
     id="base"
     pagecolor="#ffffff"
     bordercolor="#666666"
     borderopacity="1.0"
     inkscape:pageopacity="0.0"
     inkscape:pageshadow="2"
     inkscape:zoom="0.80329513"
     inkscape:cx="1039.3972"
     inkscape:cy="525.08115"
     inkscape:document-units="px"
     inkscape:current-layer="layer1"
     showgrid="false"
     units="px"
     showborder="true"
     inkscape:window-width="2558"
     inkscape:window-height="1078"
     inkscape:window-x="0"
     inkscape:window-y="0"
     inkscape:window-maximized="0"
     inkscape:snap-nodes="false"
     inkscape:snap-others="true" />
  <metadata
     id="metadata5">
    <rdf:RDF>
      <cc:Work
         rdf:about="">
        <dc:format>image/svg+xml</dc:format>
        <dc:type
           rdf:resource="http://purl.org/dc/dcmitype/StillImage" />
        <dc:title></dc:title>
      </cc:Work>
    </rdf:RDF>
  </metadata>
  <g
     inkscape:label="Layer 1"
     inkscape:groupmode="layer"
     id="layer1"
     transform="translate(0,6.400017)">
    <rect
       style="fill:none;fill-opacity:1;stroke:#000000;stroke-width:0;stroke-miterlimit:4;stroke-dasharray:none"
       id="rect1398"
       width="642.35419"
       height="1029.5095"
       x="754.3927"
       y="5.4993963" />
    <rect
       style="fill:none;fill-opacity:1;stroke:#000000;stroke-width:0;stroke-miterlimit:4;stroke-dasharray:none"
       id="rect1400"
       width="735.71973"
       height="1002.1224"
       x="1146.5276"
       y="184.76103" />
    <rect
       style="fill:none;fill-opacity:1;stroke:#000000;stroke-width:1.7;stroke-miterlimit:4;stroke-dasharray:none"
       id="rect1402"
       width="717.04645"
       height="973.49023"
       x="679.70038"
       y="61.518654" />
    <path
       style="fill:none;stroke:#000000;stroke-width:1px;stroke-linecap:butt;stroke-linejoin:miter;stroke-opacity:1"
       d="m 680.94525,141.19049 714.55675,1.24488"
       id="path1404"
       inkscape:connector-curvature="0" />
    <path
       style="fill:none;stroke:#000000;stroke-width:1px;stroke-linecap:butt;stroke-linejoin:miter;stroke-opacity:1"
       d="m 769.33119,62.76353 -1.24487,78.42696"
       id="path1406"
       inkscape:connector-curvature="0" />
    <text
       xml:space="preserve"
       style="font-style:normal;font-weight:normal;font-size:29.70938873px;line-height:1.25;font-family:sans-serif;letter-spacing:0px;word-spacing:0px;fill:#000000;fill-opacity:1;stroke:none;stroke-width:0.74273473"
       x="694.63007"
       y="107.22973"
       id="text1410"><tspan
         sodipodi:role="line"
         id="tspan1408"
         x="694.63007"
         y="107.22973"
         style="stroke-width:0.74273473">logo</tspan></text>
    <rect
       style="fill:none;fill-opacity:1;stroke:#000000;stroke-width:1.70000005;stroke-miterlimit:4;stroke-dasharray:none"
       id="rect1416"
       width="88.385948"
       height="13.693597"
       x="1295.9122"
       y="73.967384"
       ry="6.8467984" />
    <rect
       style="fill:none;fill-opacity:1;stroke:#000000;stroke-width:1.70000005;stroke-miterlimit:4;stroke-dasharray:none"
       id="rect1420"
       width="88.385948"
       height="13.693597"
       x="1295.9122"
       y="93.66098"
       ry="6.8467984" />
    <rect
       style="fill:none;fill-opacity:1;stroke:#000000;stroke-width:1.70000005;stroke-miterlimit:4;stroke-dasharray:none"
       id="rect1422"
       width="88.385948"
       height="13.693597"
       x="1294.6674"
       y="113.57894"
       ry="6.8467984" />
    <path
       style="fill:#c96dad;fill-opacity:1;stroke:none;stroke-width:2.11628318;stroke-miterlimit:4;stroke-dasharray:none"
       d="m 857.89951,146.663 -89.50156,-0.32788 0.8044,-9.51607 c 0.44242,-5.23384 0.8044,-22.59609 0.8044,-38.58276 V 69.169611 h 312.46295 312.463 v 39.213479 39.21349 l -223.7658,-0.30285 C 1048.0957,147.12716 907.12537,146.84334 857.89951,146.663 Z m 522.23619,-12.83571 c 5.0527,-2.70412 5.4013,-10.70805 0.6059,-13.91006 -0.7534,-0.50303 -19.609,-0.92317 -41.9014,-0.93366 -30.5336,-0.0144 -41.0342,0.36479 -42.5688,1.53703 -3.4728,2.65285 -3.864,7.50033 -0.9085,11.25773 l 2.6505,3.36952 h 39.8274 c 25.6928,0 40.7031,-0.46866 42.2949,-1.32056 z m 1.2449,-19.91796 c 5.0527,-2.70412 5.4013,-10.70805 0.6058,-13.910063 -0.7533,-0.503025 -19.6089,-0.92317 -41.9013,-0.933654 -30.5336,-0.01437 -41.0342,0.364782 -42.5688,1.537027 -3.4729,2.65285 -3.8641,7.50033 -0.9085,11.25773 l 2.6505,3.36952 h 39.8274 c 25.6928,0 40.7031,-0.46866 42.2949,-1.32056 z m 1.3857,-20.775924 c 3.4003,-3.872333 3.6752,-7.161319 0.894,-10.69703 l -2.6019,-3.307785 h -40.9001 -40.9 l -2.5801,3.280063 c -1.4191,1.804034 -2.5801,3.969258 -2.5801,4.811608 0,0.842349 1.161,3.007573 2.5801,4.811607 l 2.5801,3.280064 h 40.7975 c 37.296,0 40.9616,-0.186971 42.7105,-2.178527 z"
       id="path1458"
       inkscape:connector-curvature="0"
       transform="translate(0,-6.400017)" />
    <text
       xml:space="preserve"
       style="font-style:normal;font-weight:normal;font-size:40px;line-height:1.25;font-family:sans-serif;letter-spacing:0px;word-spacing:0px;fill:#ffffff;fill-opacity:1;stroke:none"
       x="1011.9994"
       y="115.27254"
       id="text1414"><tspan
         sodipodi:role="line"
         id="tspan1412"
         x="1011.9994"
         y="115.27254">Title</tspan></text>
    <rect
       style="fill:none;fill-opacity:1;stroke:#000000;stroke-width:2.54603076;stroke-miterlimit:4;stroke-dasharray:none;stroke-opacity:1"
       id="rect1460"
       width="563.20209"
       height="422.99567"
       x="763.46942"
       y="334.27618"
       ry="6.8425779" />
    <text
       xml:space="preserve"
       style="font-style:normal;font-weight:normal;font-size:40px;line-height:1.25;font-family:sans-serif;letter-spacing:0px;word-spacing:0px;fill:#000000;fill-opacity:1;stroke:none"
       x="957.55304"
       y="281.94312"
       id="text1464"><tspan
         sodipodi:role="line"
         id="tspan1462"
         x="957.55304"
         y="281.94312">Calendar</tspan></text>
    <rect
       style="fill:none;fill-opacity:1;stroke:#000000;stroke-width:2;stroke-miterlimit:4;stroke-dasharray:none;stroke-opacity:1"
       id="rect1498"
       width="288.81052"
       height="972.24542"
       x="1436.7468"
       y="61.518654"
       ry="6.8425798" />
    <flowRoot
       xml:space="preserve"
       id="flowRoot1500"
       style="font-style:normal;font-weight:normal;font-size:40px;line-height:1.25;font-family:sans-serif;letter-spacing:0px;word-spacing:0px;fill:#000000;fill-opacity:1;stroke:none"
       transform="translate(0,-6.400017)"><flowRegion
         id="flowRegion1502"><rect
           id="rect1504"
           width="63.488495"
           height="202.91422"
           x="1468.9496"
           y="106.50972" /></flowRegion><flowPara
         id="flowPara1506">Hom</flowPara></flowRoot>    <text
       xml:space="preserve"
       style="font-style:normal;font-weight:normal;font-size:40px;line-height:1.25;font-family:sans-serif;letter-spacing:0px;word-spacing:0px;fill:#000000;fill-opacity:1;stroke:none"
       x="1483.8879"
       y="151.14946"
       id="text1510"><tspan
         sodipodi:role="line"
         id="tspan1508"
         x="1483.8879"
         y="151.14946">Home</tspan><tspan
         sodipodi:role="line"
         x="1483.8879"
         y="201.14946"
         id="tspan1512" /><tspan
         sodipodi:role="line"
         x="1483.8879"
         y="251.14946"
         id="tspan1514">Login</tspan><tspan
         sodipodi:role="line"
         x="1483.8879"
         y="301.14948"
         id="tspan1516" /><tspan
         sodipodi:role="line"
         x="1483.8879"
         y="351.14948"
         id="tspan1518">Register</tspan></text>
    <path
       style="font-style:normal;font-weight:normal;font-size:49.58346558px;line-height:1.25;font-family:sans-serif;letter-spacing:0px;word-spacing:0px;fill:#000000;fill-opacity:1;stroke:none;stroke-width:1.23958659"
       d="M 1144.6836 647.22656 C 1146.8725 647.22656 1148.6035 647.97905 1149.875 649.48438 C 1151.1626 650.9897 1151.8066 653.0536 1151.8066 655.67578 C 1151.8066 658.28178 1151.1626 660.34568 1149.875 661.86719 C 1148.6035 663.37251 1146.8725 664.125 1144.6836 664.125 C 1142.4947 664.125 1140.7563 663.37251 1139.4688 661.86719 C 1138.1973 660.34568 1137.5625 658.28178 1137.5625 655.67578 C 1137.5625 653.0536 1138.1973 650.9897 1139.4688 649.48438 C 1140.7563 647.97905 1142.4947 647.22656 1144.6836 647.22656 z "
       id="path1599"
       transform="translate(0,-6.400017)" />
    <path
       style="font-style:normal;font-weight:normal;font-size:49.58346558px;line-height:1.25;font-family:sans-serif;letter-spacing:0px;word-spacing:0px;fill:#000000;fill-opacity:1;stroke:none;stroke-width:1.23958659"
       d="M 989.78906 635.33008 L 989.78906 654.67969 L 977.47656 654.67969 L 989.78906 635.33008 z "
       id="path1597"
       transform="translate(0,-6.400017)" />
    <path
       style="font-style:normal;font-weight:normal;font-size:49.58346558px;line-height:1.25;font-family:sans-serif;letter-spacing:0px;word-spacing:0px;fill:#000000;fill-opacity:1;stroke:none;stroke-width:1.23958659"
       d="M 1055.0684 631.05664 L 1055.0684 649.26562 C 1056.4203 648.65055 1057.7398 648.1976 1059.0273 647.90625 C 1060.331 647.6149 1061.6358 647.46875 1062.9395 647.46875 C 1065.7238 647.46875 1067.9291 648.20478 1069.5547 649.67773 C 1071.1803 651.15069 1071.9922 653.15072 1071.9922 655.67578 C 1071.9922 658.20084 1071.1803 660.19892 1069.5547 661.67188 C 1067.9291 663.14483 1065.7238 663.88086 1062.9395 663.88086 C 1061.2173 663.88086 1059.5842 663.6873 1058.0391 663.29883 C 1056.494 662.91036 1054.9974 662.32047 1053.5488 661.52734 L 1053.5488 666.45508 C 1055.2227 666.97304 1056.8392 667.36211 1058.4004 667.62109 C 1059.9777 667.88007 1061.5223 668.00977 1063.0352 668.00977 C 1067.429 668.00977 1070.8338 666.93207 1073.248 664.7793 C 1075.6623 662.61033 1076.8691 659.57668 1076.8691 655.67578 C 1076.8691 651.88819 1075.6936 648.88549 1073.3438 646.66797 C 1070.9939 644.45045 1067.8088 643.3418 1063.7852 643.3418 C 1063.077 643.3418 1062.3683 643.40567 1061.6602 643.53516 C 1060.952 643.64846 1060.2433 643.82752 1059.5352 644.07031 L 1059.5352 635.18359 L 1074.2129 635.18359 L 1074.2129 631.05664 L 1055.0684 631.05664 z "
       id="path1595"
       transform="translate(0,-6.400017)" />
    <path
       style="font-style:normal;font-weight:normal;font-size:49.58346558px;line-height:1.25;font-family:sans-serif;letter-spacing:0px;word-spacing:0px;fill:#000000;fill-opacity:1;stroke:none;stroke-width:1.23958659"
       d="M 1301.3418 630.40039 C 1297.7688 630.40039 1294.9527 631.24241 1292.8926 632.92578 C 1290.8485 634.60916 1289.8262 636.89953 1289.8262 639.79688 C 1289.8262 641.86872 1290.4056 643.62387 1291.5645 645.06445 C 1292.7394 646.50503 1294.3725 647.48594 1296.4648 648.00391 C 1294.115 648.55424 1292.2807 649.62998 1290.9609 651.23242 C 1289.6412 652.83487 1288.9824 654.79278 1288.9824 657.10742 C 1288.9824 660.61985 1290.0435 663.31575 1292.168 665.19336 C 1294.3086 667.07097 1297.3664 668.00977 1301.3418 668.00977 C 1305.3172 668.00977 1308.3677 667.07097 1310.4922 665.19336 C 1312.6328 663.31575 1313.7031 660.61985 1313.7031 657.10742 C 1313.7031 654.79278 1313.0424 652.83487 1311.7227 651.23242 C 1310.419 649.62998 1308.594 648.55424 1306.2441 648.00391 C 1308.3204 647.48594 1309.9369 646.50503 1311.0957 645.06445 C 1312.2706 643.62387 1312.8574 641.86872 1312.8574 639.79688 C 1312.8574 636.89953 1311.837 634.60916 1309.793 632.92578 C 1307.7489 631.24241 1304.9309 630.40039 1301.3418 630.40039 z M 1301.3418 634.28516 C 1303.4341 634.28516 1305.0692 634.81117 1306.2441 635.86328 C 1307.4352 636.91539 1308.0293 638.3802 1308.0293 640.25781 C 1308.0293 642.13542 1307.4352 643.60023 1306.2441 644.65234 C 1305.0692 645.70445 1303.4341 646.23047 1301.3418 646.23047 C 1299.2334 646.23047 1297.5929 645.70445 1296.418 644.65234 C 1295.2591 643.60023 1294.6797 642.13542 1294.6797 640.25781 C 1294.6797 638.3802 1295.2591 636.91539 1296.418 635.86328 C 1297.5929 634.81117 1299.2334 634.28516 1301.3418 634.28516 z M 1301.3418 650.0918 C 1303.6755 650.0918 1305.5025 650.71459 1306.8223 651.96094 C 1308.1581 653.20728 1308.8262 654.92227 1308.8262 657.10742 C 1308.8262 659.27639 1308.1581 660.99333 1306.8223 662.25586 C 1305.4864 663.5022 1303.6594 664.125 1301.3418 664.125 C 1299.0242 664.125 1297.1972 663.5022 1295.8613 662.25586 C 1294.5416 661.00951 1293.8828 659.29257 1293.8828 657.10742 C 1293.8828 654.92227 1294.5416 653.20728 1295.8613 651.96094 C 1297.1972 650.71459 1299.0242 650.0918 1301.3418 650.0918 z "
       id="path1593"
       transform="translate(0,-6.400017)" />
    <path
       style="font-style:normal;font-weight:normal;font-size:49.58346558px;line-height:1.25;font-family:sans-serif;letter-spacing:0px;word-spacing:0px;fill:#000000;fill-opacity:1;stroke:none;stroke-width:1.23958659"
       d="M 1189.5879 630.40039 C 1188.1716 630.40039 1186.6103 630.60316 1184.9043 631.00781 C 1183.1983 631.41247 1181.3639 632.01156 1179.4004 632.80469 L 1179.4004 637.75781 C 1181.3318 636.67333 1183.1421 635.86423 1184.832 635.33008 C 1186.5381 634.79593 1188.1565 634.52734 1189.6855 634.52734 C 1191.8422 634.52734 1193.588 635.13564 1194.9238 636.34961 C 1196.2758 637.56358 1196.9512 639.13242 1196.9512 641.05859 C 1196.9512 642.24019 1196.6375 643.44758 1196.0098 644.67773 C 1195.3982 645.89171 1194.3131 647.38022 1192.752 649.14453 C 1191.9311 650.08334 1189.9177 652.17819 1186.7148 655.43164 C 1183.5281 658.6689 1181.0111 661.25156 1179.1602 663.17773 L 1179.1602 667.30469 L 1202.0469 667.30469 L 1202.0469 663.17773 L 1185.0254 663.17773 C 1188.9525 659.14735 1191.9956 656.01496 1194.1523 653.78125 C 1196.309 651.53135 1197.5879 650.17253 1197.9902 649.70312 C 1199.4549 647.89026 1200.4606 646.31946 1201.0078 644.99219 C 1201.5711 643.64872 1201.8535 642.23328 1201.8535 640.74414 C 1201.8535 637.604 1200.7426 635.09441 1198.5215 633.2168 C 1196.3004 631.33919 1193.3219 630.40039 1189.5879 630.40039 z M 1268.2188 630.40039 C 1266.8024 630.40039 1265.2412 630.60316 1263.5352 631.00781 C 1261.8291 631.41247 1259.9948 632.01156 1258.0312 632.80469 L 1258.0312 637.75781 C 1259.9626 636.67333 1261.7729 635.86423 1263.4629 635.33008 C 1265.1689 634.79593 1266.7874 634.52734 1268.3164 634.52734 C 1270.4731 634.52734 1272.2188 635.13564 1273.5547 636.34961 C 1274.9066 637.56358 1275.582 639.13242 1275.582 641.05859 C 1275.582 642.24019 1275.2683 643.44758 1274.6406 644.67773 C 1274.029 645.89171 1272.944 647.38022 1271.3828 649.14453 C 1270.562 650.08334 1268.5486 652.17819 1265.3457 655.43164 C 1262.1589 658.6689 1259.6419 661.25156 1257.791 663.17773 L 1257.791 667.30469 L 1280.6777 667.30469 L 1280.6777 663.17773 L 1263.6562 663.17773 C 1267.5834 659.14735 1270.6265 656.01496 1272.7832 653.78125 C 1274.9399 651.53135 1276.2187 650.17253 1276.6211 649.70312 C 1278.0857 647.89026 1279.0915 646.31946 1279.6387 644.99219 C 1280.202 643.64872 1280.4844 642.23328 1280.4844 640.74414 C 1280.4844 637.604 1279.3734 635.09441 1277.1523 633.2168 C 1274.9313 631.33919 1271.9527 630.40039 1268.2188 630.40039 z M 1211.0508 631.05664 L 1211.0508 635.18359 L 1228.3613 635.18359 L 1216.0488 667.30469 L 1221.1426 667.30469 L 1234.2266 633.14453 L 1234.2266 631.05664 L 1211.0508 631.05664 z "
       id="path1591"
       transform="translate(0,-6.400017)" />
    <rect
       ry="6.8425798"
       y="611.75232"
       x="1086.7737"
       height="65.978241"
       width="84.651329"
       id="rect1603"
       style="fill:#c96dad;fill-opacity:1;stroke:#000000;stroke-width:2;stroke-miterlimit:4;stroke-dasharray:none;stroke-opacity:1" />
    <path
       style="font-style:normal;font-weight:normal;font-size:49.58346558px;line-height:1.25;font-family:sans-serif;letter-spacing:0px;word-spacing:0px;fill:#000000;fill-opacity:1;stroke:none;stroke-width:1.23958659"
       d="M 1110.957 630.40039 C 1109.5407 630.40039 1107.9795 630.60316 1106.2734 631.00781 C 1104.5674 631.41247 1102.7331 632.01156 1100.7695 632.80469 L 1100.7695 637.75781 C 1102.7009 636.67333 1104.5112 635.86423 1106.2012 635.33008 C 1107.9072 634.79593 1109.5257 634.52734 1111.0547 634.52734 C 1113.2114 634.52734 1114.9571 635.13564 1116.293 636.34961 C 1117.6449 637.56358 1118.3203 639.13242 1118.3203 641.05859 C 1118.3203 642.24019 1118.0066 643.44758 1117.3789 644.67773 C 1116.7673 645.89171 1115.6823 647.38022 1114.1211 649.14453 C 1113.3003 650.08334 1111.2868 652.17819 1108.084 655.43164 C 1104.8972 658.6689 1102.3802 661.25156 1100.5293 663.17773 L 1100.5293 667.30469 L 1123.416 667.30469 L 1123.416 663.17773 L 1106.3945 663.17773 C 1110.3216 659.14735 1113.3648 656.01496 1115.5215 653.78125 C 1117.6782 651.53135 1118.957 650.17253 1119.3594 649.70312 C 1120.824 647.89026 1121.8297 646.31946 1122.377 644.99219 C 1122.9403 643.64872 1123.2227 642.23328 1123.2227 640.74414 C 1123.2227 637.604 1122.1117 635.09441 1119.8906 633.2168 C 1117.6696 631.33919 1114.691 630.40039 1110.957 630.40039 z M 1146.7598 630.40039 C 1142.205 630.40039 1138.577 632.10813 1135.873 635.52344 C 1133.1691 638.92256 1131.8164 643.48685 1131.8164 649.2168 C 1131.8164 655.31903 1132.92 659.9801 1135.125 663.20117 C 1137.33 666.40606 1140.5151 668.00977 1144.6836 668.00977 C 1148.321 668.00977 1151.2349 666.88466 1153.4238 664.63477 C 1155.6127 662.38487 1156.707 659.39863 1156.707 655.67578 C 1156.707 651.872 1155.6533 648.86931 1153.5449 646.66797 C 1151.4526 644.45045 1148.5959 643.3418 1144.9746 643.3418 C 1143.2525 643.3418 1141.6746 643.72167 1140.2422 644.48242 C 1138.8098 645.22699 1137.6195 646.30273 1136.6699 647.71094 C 1136.9113 643.29208 1137.8765 639.99179 1139.5664 637.80664 C 1141.2724 635.62149 1143.7342 634.52734 1146.9531 634.52734 C 1148.1763 634.52734 1149.4091 634.68269 1150.6484 634.99023 C 1151.9038 635.29777 1153.142 635.74151 1154.3652 636.32422 L 1154.3652 631.85742 C 1153.0133 631.37183 1151.7105 631.00647 1150.4551 630.76367 C 1149.2158 630.52088 1147.983 630.40039 1146.7598 630.40039 z "
       id="path1589"
       transform="translate(0,-6.400017)" />
    <path
       style="font-style:normal;font-weight:normal;font-size:49.58346558px;line-height:1.25;font-family:sans-serif;letter-spacing:0px;word-spacing:0px;fill:#000000;fill-opacity:1;stroke:none;stroke-width:1.23958659"
       d="M 953.69531 630.40039 C 952.27898 630.40039 950.71776 630.60316 949.01172 631.00781 C 947.30568 631.41247 945.47137 632.01156 943.50781 632.80469 L 943.50781 637.75781 C 945.43918 636.67333 947.24951 635.86423 948.93945 635.33008 C 950.64549 634.79593 952.26397 634.52734 953.79297 634.52734 C 955.94966 634.52734 957.69539 635.13564 959.03125 636.34961 C 960.38321 637.56358 961.06055 639.13242 961.06055 641.05859 C 961.06055 642.24019 960.74488 643.44758 960.11719 644.67773 C 959.50559 645.89171 958.42056 647.38022 956.85938 649.14453 C 956.03854 650.08334 954.02707 652.17819 950.82422 655.43164 C 947.63746 658.6689 945.11847 661.25156 943.26758 663.17773 L 943.26758 667.30469 L 966.1543 667.30469 L 966.1543 663.17773 L 949.13281 663.17773 C 953.05993 659.14735 956.10307 656.01496 958.25977 653.78125 C 960.41646 651.53135 961.69529 650.17253 962.09766 649.70312 C 963.56228 647.89026 964.56801 646.31946 965.11523 644.99219 C 965.67855 643.64872 965.96094 642.23328 965.96094 640.74414 C 965.96094 637.604 964.84998 635.09441 962.62891 633.2168 C 960.40783 631.33919 957.42929 630.40039 953.69531 630.40039 z M 1032.3262 630.40039 C 1030.9098 630.40039 1029.3486 630.60316 1027.6426 631.00781 C 1025.9365 631.41247 1024.1022 632.01156 1022.1387 632.80469 L 1022.1387 637.75781 C 1024.07 636.67333 1025.8804 635.86423 1027.5703 635.33008 C 1029.2764 634.79593 1030.8948 634.52734 1032.4238 634.52734 C 1034.5805 634.52734 1036.3262 635.13564 1037.6621 636.34961 C 1039.0141 637.56358 1039.6895 639.13242 1039.6895 641.05859 C 1039.6895 642.24019 1039.3757 643.44758 1038.748 644.67773 C 1038.1364 645.89171 1037.0514 647.38022 1035.4902 649.14453 C 1034.6694 650.08334 1032.6579 652.17819 1029.4551 655.43164 C 1026.2683 658.6689 1023.7493 661.25156 1021.8984 663.17773 L 1021.8984 667.30469 L 1044.7852 667.30469 L 1044.7852 663.17773 L 1027.7637 663.17773 C 1031.6908 659.14735 1034.7339 656.01496 1036.8906 653.78125 C 1039.0473 651.53135 1040.3261 650.17253 1040.7285 649.70312 C 1042.1931 647.89026 1043.1989 646.31946 1043.7461 644.99219 C 1044.3094 643.64872 1044.5918 642.23328 1044.5918 640.74414 C 1044.5918 637.604 1043.4808 635.09441 1041.2598 633.2168 C 1039.0387 631.33919 1036.0602 630.40039 1032.3262 630.40039 z M 988.50977 631.05664 L 973.51758 654.02344 L 973.51758 658.75977 L 989.78906 658.75977 L 989.78906 667.30469 L 994.64062 667.30469 L 994.64062 658.75977 L 999.7832 658.75977 L 999.7832 654.67969 L 994.64062 654.67969 L 994.64062 631.05664 L 988.50977 631.05664 z "
       id="path1587"
       transform="translate(0,-6.400017)" />
    <path
       style="font-style:normal;font-weight:normal;font-size:49.58346558px;line-height:1.25;font-family:sans-serif;letter-spacing:0px;word-spacing:0px;fill:#000000;fill-opacity:1;stroke:none;stroke-width:1.23958659"
       d="M 875.06445 630.40039 C 873.64812 630.40039 872.08885 630.60316 870.38281 631.00781 C 868.67677 631.41247 866.84051 632.01156 864.87695 632.80469 L 864.87695 637.75781 C 866.80832 636.67333 868.61865 635.86423 870.30859 635.33008 C 872.01464 634.79593 873.63311 634.52734 875.16211 634.52734 C 877.3188 634.52734 879.06453 635.13564 880.40039 636.34961 C 881.75235 637.56358 882.42969 639.13242 882.42969 641.05859 C 882.42969 642.24019 882.11402 643.44758 881.48633 644.67773 C 880.87473 645.89171 879.7897 647.38022 878.22852 649.14453 C 877.40768 650.08334 875.39621 652.17819 872.19336 655.43164 C 869.0066 658.6689 866.48761 661.25156 864.63672 663.17773 L 864.63672 667.30469 L 887.52344 667.30469 L 887.52344 663.17773 L 870.50195 663.17773 C 874.42907 659.14735 877.47221 656.01496 879.62891 653.78125 C 881.7856 651.53135 883.06443 650.17253 883.4668 649.70312 C 884.93142 647.89026 885.93715 646.31946 886.48438 644.99219 C 887.04769 643.64872 887.33008 642.23328 887.33008 640.74414 C 887.33008 637.604 886.21912 635.09441 883.99805 633.2168 C 881.77697 631.33919 878.79843 630.40039 875.06445 630.40039 z M 907.10156 630.40039 C 905.66913 630.40039 904.14119 630.53008 902.51562 630.78906 C 900.90615 631.04804 899.17511 631.43712 897.32422 631.95508 L 897.32422 636.32422 C 899.15902 635.70914 900.84209 635.2562 902.37109 634.96484 C 903.90009 634.67349 905.33211 634.52734 906.66797 634.52734 C 909.11437 634.52734 910.9893 635.02965 912.29297 636.0332 C 913.61274 637.02057 914.27148 638.44522 914.27148 640.30664 C 914.27148 642.11951 913.63672 643.51124 912.36523 644.48242 C 911.09375 645.43741 909.25944 645.91406 906.86133 645.91406 L 902.4668 645.91406 L 902.4668 649.94531 L 906.66797 649.94531 C 909.3236 649.94531 911.39038 650.55165 912.87109 651.76562 C 914.3679 652.96341 915.11719 654.63099 915.11719 656.76758 C 915.11719 659.08222 914.3126 660.84657 912.70312 662.06055 C 911.10975 663.27452 908.78456 663.88086 905.72656 663.88086 C 903.97224 663.88086 902.28916 663.68005 900.67969 663.27539 C 899.07021 662.87073 897.59024 662.27164 896.23828 661.47852 L 896.23828 666.21289 C 897.94432 666.81178 899.59412 667.25747 901.1875 667.54883 C 902.79697 667.85637 904.35819 668.00977 905.87109 668.00977 C 910.37762 668.00977 913.85438 667.03081 916.30078 665.07227 C 918.74718 663.11372 919.96875 660.34475 919.96875 656.76758 C 919.96875 654.43675 919.31 652.47884 917.99023 650.89258 C 916.68656 649.30632 914.86694 648.26154 912.5332 647.75977 C 914.64161 647.22562 916.26743 646.27037 917.41016 644.89453 C 918.55288 643.50251 919.125 641.80398 919.125 639.79688 C 919.125 636.91571 918.04732 634.63259 915.89062 632.94922 C 913.73393 631.24966 910.80335 630.40039 907.10156 630.40039 z "
       id="path1585"
       transform="translate(0,-6.400017)" />
    <path
       style="font-style:normal;font-weight:normal;font-size:49.58346558px;line-height:1.25;font-family:sans-serif;letter-spacing:0px;word-spacing:0px;fill:#000000;fill-opacity:1;stroke:none;stroke-width:1.23958659"
       d="M 796.43555 630.40039 C 795.01921 630.40039 793.45799 630.60316 791.75195 631.00781 C 790.04591 631.41247 788.20965 632.01156 786.24609 632.80469 L 786.24609 637.75781 C 788.17746 636.67333 789.98779 635.86423 791.67773 635.33008 C 793.38378 634.79593 795.00225 634.52734 796.53125 634.52734 C 798.68794 634.52734 800.43367 635.13564 801.76953 636.34961 C 803.12149 637.56358 803.79883 639.13242 803.79883 641.05859 C 803.79883 642.24019 803.48316 643.44758 802.85547 644.67773 C 802.24387 645.89171 801.15885 647.38022 799.59766 649.14453 C 798.77682 650.08334 796.76535 652.17819 793.5625 655.43164 C 790.37574 658.6689 787.85675 661.25156 786.00586 663.17773 L 786.00586 667.30469 L 808.89258 667.30469 L 808.89258 663.17773 L 791.87109 663.17773 C 795.79821 659.14735 798.84135 656.01496 800.99805 653.78125 C 803.15474 651.53135 804.43357 650.17253 804.83594 649.70312 C 806.30056 647.89026 807.30629 646.31946 807.85352 644.99219 C 808.41683 643.64872 808.69922 642.23328 808.69922 640.74414 C 808.69922 637.604 807.58826 635.09441 805.36719 633.2168 C 803.14611 631.33919 800.16953 630.40039 796.43555 630.40039 z M 827.89258 630.40039 C 826.47624 630.40039 824.91503 630.60316 823.20898 631.00781 C 821.50294 631.41247 819.66668 632.01156 817.70312 632.80469 L 817.70312 637.75781 C 819.63449 636.67333 821.44677 635.86423 823.13672 635.33008 C 824.84276 634.79593 826.45928 634.52734 827.98828 634.52734 C 830.14498 634.52734 831.8907 635.13564 833.22656 636.34961 C 834.57852 637.56358 835.25586 639.13242 835.25586 641.05859 C 835.25586 642.24019 834.94215 643.44758 834.31445 644.67773 C 833.70285 645.89171 832.61588 647.38022 831.05469 649.14453 C 830.23386 650.08334 828.22238 652.17819 825.01953 655.43164 C 821.83277 658.6689 819.31378 661.25156 817.46289 663.17773 L 817.46289 667.30469 L 840.34961 667.30469 L 840.34961 663.17773 L 823.32812 663.17773 C 827.25524 659.14735 830.29838 656.01496 832.45508 653.78125 C 834.61177 651.53135 835.8906 650.17253 836.29297 649.70312 C 837.75759 647.89026 838.76333 646.31946 839.31055 644.99219 C 839.87386 643.64872 840.15625 642.23328 840.15625 640.74414 C 840.15625 637.604 839.04529 635.09441 836.82422 633.2168 C 834.60315 631.33919 831.62656 630.40039 827.89258 630.40039 z "
       id="path1583"
       transform="translate(0,-6.400017)" />
    <path
       style="font-style:normal;font-weight:normal;font-size:49.58346558px;line-height:1.25;font-family:sans-serif;letter-spacing:0px;word-spacing:0px;fill:#000000;fill-opacity:1;stroke:none;stroke-width:1.23958659"
       d="M 1065.4492 587.93555 C 1067.783 587.93555 1069.6099 588.55834 1070.9297 589.80469 C 1072.2656 591.05103 1072.9336 592.76797 1072.9336 594.95312 C 1072.9336 597.12209 1072.2656 598.83708 1070.9297 600.09961 C 1069.5938 601.34595 1067.7669 601.96875 1065.4492 601.96875 C 1063.1316 601.96875 1061.3066 601.34595 1059.9707 600.09961 C 1058.6509 598.85326 1057.9902 597.13828 1057.9902 594.95312 C 1057.9902 592.76797 1058.6509 591.05103 1059.9707 589.80469 C 1061.3066 588.55834 1063.1316 587.93555 1065.4492 587.93555 z "
       id="path1581"
       transform="translate(0,-6.400017)" />
    <path
       style="font-style:normal;font-weight:normal;font-size:49.58346558px;line-height:1.25;font-family:sans-serif;letter-spacing:0px;word-spacing:0px;fill:#000000;fill-opacity:1;stroke:none;stroke-width:1.23958659"
       d="M 1065.4492 572.12891 C 1067.5415 572.12891 1069.1766 572.65492 1070.3516 573.70703 C 1071.5426 574.75914 1072.1367 576.22395 1072.1367 578.10156 C 1072.1367 579.97917 1071.5426 581.44594 1070.3516 582.49805 C 1069.1766 583.55016 1067.5415 584.07617 1065.4492 584.07617 C 1063.3408 584.07617 1061.7003 583.55016 1060.5254 582.49805 C 1059.3666 581.44594 1058.7871 579.97917 1058.7871 578.10156 C 1058.7871 576.22395 1059.3666 574.75914 1060.5254 573.70703 C 1061.7003 572.65492 1063.3408 572.12891 1065.4492 572.12891 z "
       id="path1579"
       transform="translate(0,-6.400017)" />
    <path
       style="font-style:normal;font-weight:normal;font-size:49.58346558px;line-height:1.25;font-family:sans-serif;letter-spacing:0px;word-spacing:0px;fill:#000000;fill-opacity:1;stroke:none;stroke-width:1.23958659"
       d="M 1299.6758 568.90039 L 1291.0586 570.64844 L 1291.0586 575.11523 L 1299.7246 573.36719 L 1299.7246 601.02148 L 1291.7578 601.02148 L 1291.7578 605.15039 L 1312.5195 605.15039 L 1312.5195 601.02148 L 1304.5527 601.02148 L 1304.5527 568.90039 L 1299.6758 568.90039 z "
       id="path1577"
       transform="translate(0,-6.400017)" />
    <path
       style="font-style:normal;font-weight:normal;font-size:49.58346558px;line-height:1.25;font-family:sans-serif;letter-spacing:0px;word-spacing:0px;fill:#000000;fill-opacity:1;stroke:none;stroke-width:1.23958659"
       d="M 1110.957 568.90039 L 1102.3398 570.64844 L 1102.3398 575.11523 L 1111.0059 573.36719 L 1111.0059 601.02148 L 1103.0391 601.02148 L 1103.0391 605.15039 L 1123.8008 605.15039 L 1123.8008 601.02148 L 1115.834 601.02148 L 1115.834 568.90039 L 1110.957 568.90039 z "
       id="path1575"
       transform="translate(0,-6.400017)" />
    <path
       style="font-style:normal;font-weight:normal;font-size:49.58346558px;line-height:1.25;font-family:sans-serif;letter-spacing:0px;word-spacing:0px;fill:#000000;fill-opacity:1;stroke:none;stroke-width:1.23958659"
       d="M 875.06445 568.90039 L 866.44727 570.64844 L 866.44727 575.11523 L 875.11328 573.36719 L 875.11328 601.02148 L 867.14648 601.02148 L 867.14648 605.15039 L 887.9082 605.15039 L 887.9082 601.02148 L 879.94141 601.02148 L 879.94141 568.90039 L 875.06445 568.90039 z "
       id="path1573"
       transform="translate(0,-6.400017)" />
    <path
       style="font-style:normal;font-weight:normal;font-size:49.58346558px;line-height:1.25;font-family:sans-serif;letter-spacing:0px;word-spacing:0px;fill:#000000;fill-opacity:1;stroke:none;stroke-width:1.23958659"
       d="M 819.17578 568.90039 L 819.17578 587.10938 C 820.52774 586.4943 821.84914 586.04135 823.13672 585.75 C 824.44039 585.45865 825.7432 585.31445 827.04688 585.31445 C 829.83126 585.31445 832.03654 586.05048 833.66211 587.52344 C 835.28768 588.99639 836.09961 590.99447 836.09961 593.51953 C 836.09961 596.04459 835.28768 598.04463 833.66211 599.51758 C 832.03654 600.99053 829.83126 601.72656 827.04688 601.72656 C 825.32474 601.72656 823.69158 601.533 822.14648 601.14453 C 820.60139 600.75606 819.10478 600.16422 817.65625 599.37109 L 817.65625 604.30078 C 819.3301 604.81874 820.94662 605.20586 822.50781 605.46484 C 824.0851 605.72382 825.62967 605.85352 827.14258 605.85352 C 831.53644 605.85352 834.94126 604.77778 837.35547 602.625 C 839.76968 600.45604 840.97656 597.42043 840.97656 593.51953 C 840.97656 589.73194 839.801 586.72924 837.45117 584.51172 C 835.10134 582.2942 831.91626 581.18555 827.89258 581.18555 C 827.18441 581.18555 826.47575 581.25137 825.76758 581.38086 C 825.05941 581.49416 824.35075 581.67127 823.64258 581.91406 L 823.64258 573.02734 L 838.32031 573.02734 L 838.32031 568.90039 L 819.17578 568.90039 z "
       id="path1571"
       transform="translate(0,-6.400017)" />
    <path
       style="font-style:normal;font-weight:normal;font-size:49.58346558px;line-height:1.25;font-family:sans-serif;letter-spacing:0px;word-spacing:0px;fill:#000000;fill-opacity:1;stroke:none;stroke-width:1.23958659"
       d="M 796.43555 568.90039 L 787.81641 570.64844 L 787.81641 575.11523 L 796.48242 573.36719 L 796.48242 601.02148 L 788.51562 601.02148 L 788.51562 605.15039 L 809.27734 605.15039 L 809.27734 601.02148 L 801.31055 601.02148 L 801.31055 568.90039 L 796.43555 568.90039 z "
       id="path1569"
       transform="translate(0,-6.400017)" />
    <path
       style="font-style:normal;font-weight:normal;font-size:49.58346558px;line-height:1.25;font-family:sans-serif;letter-spacing:0px;word-spacing:0px;fill:#000000;fill-opacity:1;stroke:none;stroke-width:1.23958659"
       d="M 1222.7109 568.24414 C 1218.6712 568.24414 1215.582 569.8551 1213.4414 573.07617 C 1211.3169 576.28106 1210.2539 580.94408 1210.2539 587.0625 C 1210.2539 593.16473 1211.3169 597.8258 1213.4414 601.04688 C 1215.582 604.25176 1218.6712 605.85352 1222.7109 605.85352 C 1226.7507 605.85352 1229.8345 604.25176 1231.959 601.04688 C 1234.0996 597.8258 1235.1699 593.16473 1235.1699 587.0625 C 1235.1699 580.94408 1234.0996 576.28106 1231.959 573.07617 C 1229.8345 569.8551 1226.7507 568.24414 1222.7109 568.24414 z M 1268.2188 568.24414 C 1266.8024 568.24414 1265.2412 568.44691 1263.5352 568.85156 C 1261.8291 569.25622 1259.9948 569.85531 1258.0312 570.64844 L 1258.0312 575.60156 C 1259.9626 574.51708 1261.7729 573.70798 1263.4629 573.17383 C 1265.1689 572.63968 1266.7874 572.37305 1268.3164 572.37305 C 1270.4731 572.37305 1272.2188 572.97939 1273.5547 574.19336 C 1274.9066 575.40733 1275.582 576.97813 1275.582 578.9043 C 1275.582 580.0859 1275.2683 581.29133 1274.6406 582.52148 C 1274.029 583.73546 1272.944 585.22397 1271.3828 586.98828 C 1270.562 587.92709 1268.5486 590.0239 1265.3457 593.27734 C 1262.1589 596.5146 1259.6419 599.09531 1257.791 601.02148 L 1257.791 605.15039 L 1280.6777 605.15039 L 1280.6777 601.02148 L 1263.6562 601.02148 C 1267.5834 596.9911 1270.6265 593.86066 1272.7832 591.62695 C 1274.9399 589.37706 1276.2187 588.01628 1276.6211 587.54688 C 1278.0857 585.73401 1279.0915 584.16517 1279.6387 582.83789 C 1280.202 581.49443 1280.4844 580.07703 1280.4844 578.58789 C 1280.4844 575.44775 1279.3734 572.93816 1277.1523 571.06055 C 1274.9313 569.18294 1271.9527 568.24414 1268.2188 568.24414 z M 1222.7109 572.12891 C 1225.2378 572.12891 1227.1294 573.37645 1228.3848 575.86914 C 1229.6562 578.34564 1230.293 582.07712 1230.293 587.0625 C 1230.293 592.03169 1229.6562 595.76122 1228.3848 598.25391 C 1227.1294 600.73041 1225.2378 601.96875 1222.7109 601.96875 C 1220.2002 601.96875 1218.3105 600.73041 1217.0391 598.25391 C 1215.7837 595.76122 1215.1543 592.03169 1215.1543 587.0625 C 1215.1543 582.07712 1215.7837 578.34564 1217.0391 575.86914 C 1218.3105 573.37645 1220.2002 572.12891 1222.7109 572.12891 z "
       id="path1567"
       transform="translate(0,-6.400017)" />
    <path
       style="font-style:normal;font-weight:normal;font-size:49.58346558px;line-height:1.25;font-family:sans-serif;letter-spacing:0px;word-spacing:0px;fill:#000000;fill-opacity:1;stroke:none;stroke-width:1.23958659"
       d="M 1143.502 568.24414 C 1139.8645 568.24414 1136.9506 569.36925 1134.7617 571.61914 C 1132.5728 573.86904 1131.4785 576.85528 1131.4785 580.57812 C 1131.4785 584.38191 1132.5249 587.3846 1134.6172 589.58594 C 1136.7256 591.77109 1139.5823 592.86523 1143.1875 592.86523 C 1144.9257 592.86523 1146.5109 592.49262 1147.9434 591.74805 C 1149.3758 591.00348 1150.5587 589.93499 1151.4922 588.54297 C 1151.2508 592.97801 1150.2764 596.28751 1148.5703 598.47266 C 1146.8804 600.64162 1144.426 601.72656 1141.207 601.72656 C 1139.9999 601.72656 1138.7691 601.57316 1137.5137 601.26562 C 1136.2583 600.95809 1135.0201 600.51239 1133.7969 599.92969 L 1133.7969 604.39648 C 1135.1488 604.88207 1136.4516 605.24744 1137.707 605.49023 C 1138.9624 605.73303 1140.2026 605.85352 1141.4258 605.85352 C 1145.9806 605.85352 1149.6012 604.15498 1152.2891 600.75586 C 1154.993 597.34055 1156.3457 592.77626 1156.3457 587.0625 C 1156.3457 580.94408 1155.2421 576.28106 1153.0371 573.07617 C 1150.8482 569.8551 1147.6705 568.24414 1143.502 568.24414 z M 1189.5879 568.24414 C 1188.1716 568.24414 1186.6103 568.44691 1184.9043 568.85156 C 1183.1983 569.25622 1181.3639 569.85531 1179.4004 570.64844 L 1179.4004 575.60156 C 1181.3318 574.51708 1183.1421 573.70798 1184.832 573.17383 C 1186.5381 572.63968 1188.1565 572.37305 1189.6855 572.37305 C 1191.8422 572.37305 1193.588 572.97939 1194.9238 574.19336 C 1196.2758 575.40733 1196.9512 576.97813 1196.9512 578.9043 C 1196.9512 580.0859 1196.6375 581.29133 1196.0098 582.52148 C 1195.3982 583.73546 1194.3131 585.22397 1192.752 586.98828 C 1191.9311 587.92709 1189.9177 590.0239 1186.7148 593.27734 C 1183.5281 596.5146 1181.0111 599.09531 1179.1602 601.02148 L 1179.1602 605.15039 L 1202.0469 605.15039 L 1202.0469 601.02148 L 1185.0254 601.02148 C 1188.9525 596.9911 1191.9956 593.86066 1194.1523 591.62695 C 1196.309 589.37706 1197.5879 588.01628 1197.9902 587.54688 C 1199.4549 585.73401 1200.4606 584.16517 1201.0078 582.83789 C 1201.5711 581.49443 1201.8535 580.07703 1201.8535 578.58789 C 1201.8535 575.44775 1200.7426 572.93816 1198.5215 571.06055 C 1196.3004 569.18294 1193.3219 568.24414 1189.5879 568.24414 z M 1143.502 572.12891 C 1145.6908 572.12891 1147.4199 572.8906 1148.6914 574.41211 C 1149.979 575.91744 1150.623 577.97213 1150.623 580.57812 C 1150.623 583.20031 1149.979 585.26421 1148.6914 586.76953 C 1147.4199 588.27486 1145.6908 589.02734 1143.502 589.02734 C 1141.3131 589.02734 1139.5747 588.27486 1138.2871 586.76953 C 1137.0156 585.26421 1136.3789 583.20031 1136.3789 580.57812 C 1136.3789 577.97213 1137.0156 575.91744 1138.2871 574.41211 C 1139.5747 572.8906 1141.3131 572.12891 1143.502 572.12891 z "
       id="path1565"
       transform="translate(0,-6.400017)" />
    <path
       style="font-style:normal;font-weight:normal;font-size:49.58346558px;line-height:1.25;font-family:sans-serif;letter-spacing:0px;word-spacing:0px;fill:#000000;fill-opacity:1;stroke:none;stroke-width:1.23958659"
       d="M 910.86719 568.24414 C 906.31238 568.24414 902.68438 569.95188 899.98047 573.36719 C 897.27655 576.76631 895.92383 581.33255 895.92383 587.0625 C 895.92383 593.16473 897.02744 597.8258 899.23242 601.04688 C 901.4374 604.25176 904.62248 605.85352 908.79102 605.85352 C 912.42843 605.85352 915.34237 604.72841 917.53125 602.47852 C 919.72013 600.22862 920.81445 597.24238 920.81445 593.51953 C 920.81445 589.71575 919.76075 586.71306 917.65234 584.51172 C 915.56003 582.2942 912.70335 581.18555 909.08203 581.18555 C 907.35989 581.18555 905.78204 581.56542 904.34961 582.32617 C 902.91718 583.07074 901.72693 584.14843 900.77734 585.55664 C 901.01876 581.13778 901.98388 577.83554 903.67383 575.65039 C 905.37987 573.46524 907.8416 572.37305 911.06055 572.37305 C 912.28375 572.37305 913.51656 572.52644 914.75586 572.83398 C 916.01125 573.14152 917.24946 573.58722 918.47266 574.16992 L 918.47266 569.70117 C 917.1207 569.21558 915.81789 568.85217 914.5625 568.60938 C 913.32321 568.36658 912.09039 568.24414 910.86719 568.24414 z M 1065.4492 568.24414 C 1061.8762 568.24414 1059.0601 569.08616 1057 570.76953 C 1054.956 572.45291 1053.9336 574.74328 1053.9336 577.64062 C 1053.9336 579.71247 1054.5131 581.46958 1055.6719 582.91016 C 1056.8468 584.35074 1058.4819 585.32969 1060.5742 585.84766 C 1058.2244 586.39799 1056.3881 587.47373 1055.0684 589.07617 C 1053.7486 590.67862 1053.0898 592.63848 1053.0898 594.95312 C 1053.0898 598.46555 1054.1509 601.1595 1056.2754 603.03711 C 1058.416 604.91472 1061.4738 605.85352 1065.4492 605.85352 C 1069.4246 605.85352 1072.4751 604.91472 1074.5996 603.03711 C 1076.7402 601.1595 1077.8105 598.46555 1077.8105 594.95312 C 1077.8105 592.63848 1077.1518 590.67862 1075.832 589.07617 C 1074.5284 587.47373 1072.7014 586.39799 1070.3516 585.84766 C 1072.4278 585.32969 1074.0443 584.35074 1075.2031 582.91016 C 1076.378 581.46958 1076.9648 579.71247 1076.9648 577.64062 C 1076.9648 574.74328 1075.9444 572.45291 1073.9004 570.76953 C 1071.8564 569.08616 1069.0383 568.24414 1065.4492 568.24414 z M 953.69531 568.90039 L 945.07812 570.64844 L 945.07812 575.11523 L 953.74414 573.36719 L 953.74414 601.02148 L 945.77734 601.02148 L 945.77734 605.15039 L 966.53906 605.15039 L 966.53906 601.02148 L 958.57227 601.02148 L 958.57227 568.90039 L 953.69531 568.90039 z M 975.1582 568.90039 L 975.1582 573.02734 L 992.46875 573.02734 L 980.15625 605.15039 L 985.25 605.15039 L 998.33594 570.98828 L 998.33594 568.90039 L 975.1582 568.90039 z M 1032.3262 568.90039 L 1023.709 570.64844 L 1023.709 575.11523 L 1032.375 573.36719 L 1032.375 601.02148 L 1024.4082 601.02148 L 1024.4082 605.15039 L 1045.1699 605.15039 L 1045.1699 601.02148 L 1037.2031 601.02148 L 1037.2031 568.90039 L 1032.3262 568.90039 z M 908.79102 585.07031 C 910.9799 585.07031 912.71094 585.8228 913.98242 587.32812 C 915.27 588.83345 915.91406 590.89735 915.91406 593.51953 C 915.91406 596.12553 915.27 598.18943 913.98242 599.71094 C 912.71094 601.21626 910.9799 601.96875 908.79102 601.96875 C 906.60213 601.96875 904.8657 601.21626 903.57812 599.71094 C 902.30664 598.18943 901.66992 596.12553 901.66992 593.51953 C 901.66992 590.89735 902.30664 588.83345 903.57812 587.32812 C 904.8657 585.8228 906.60213 585.07031 908.79102 585.07031 z "
       id="path1563"
       transform="translate(0,-6.400017)" />
    <path
       style="font-style:normal;font-weight:normal;font-size:49.58346558px;line-height:1.25;font-family:sans-serif;letter-spacing:0px;word-spacing:0px;fill:#000000;fill-opacity:1;stroke:none;stroke-width:1.23958659"
       d="M 1257.1133 511.01758 L 1257.1133 530.36914 L 1244.8008 530.36914 L 1257.1133 511.01758 z "
       id="path1561"
       transform="translate(0,-6.400017)" />
    <path
       style="font-style:normal;font-weight:normal;font-size:49.58346558px;line-height:1.25;font-family:sans-serif;letter-spacing:0px;word-spacing:0px;fill:#000000;fill-opacity:1;stroke:none;stroke-width:1.23958659"
       d="M 860.41211 509.97461 C 862.60099 509.97461 864.33008 510.73435 865.60156 512.25586 C 866.88914 513.76119 867.5332 515.81783 867.5332 518.42383 C 867.5332 521.04601 866.88914 523.10991 865.60156 524.61523 C 864.33008 526.12056 862.60099 526.87305 860.41211 526.87305 C 858.22323 526.87305 856.48484 526.12056 855.19727 524.61523 C 853.92578 523.10991 853.28906 521.04601 853.28906 518.42383 C 853.28906 515.81783 853.92578 513.76119 855.19727 512.25586 C 856.48484 510.73435 858.22323 509.97461 860.41211 509.97461 z "
       id="path1559"
       transform="translate(0,-6.400017)" />
    <path
       style="font-style:normal;font-weight:normal;font-size:49.58346558px;line-height:1.25;font-family:sans-serif;letter-spacing:0px;word-spacing:0px;fill:#000000;fill-opacity:1;stroke:none;stroke-width:1.23958659"
       d="M 1142.3906 506.74609 L 1133.7715 508.49414 L 1133.7715 512.96094 L 1142.4395 511.21289 L 1142.4395 538.86719 L 1134.4727 538.86719 L 1134.4727 542.99414 L 1155.2344 542.99414 L 1155.2344 538.86719 L 1147.2676 538.86719 L 1147.2676 506.74609 L 1142.3906 506.74609 z "
       id="path1557"
       transform="translate(0,-6.400017)" />
    <rect
       style="fill:#c96dad;fill-opacity:1;stroke:#000000;stroke-width:2;stroke-miterlimit:4;stroke-dasharray:none;stroke-opacity:1"
       id="rect1601"
       width="84.651329"
       height="65.978241"
       x="881.36969"
       y="486.02017"
       ry="6.8425798" />
    <path
       style="font-style:normal;font-weight:normal;font-size:49.58346558px;line-height:1.25;font-family:sans-serif;letter-spacing:0px;word-spacing:0px;fill:#000000;fill-opacity:1;stroke:none;stroke-width:1.23958659"
       d="M 906.49805 506.74609 L 897.87891 508.49414 L 897.87891 512.96094 L 906.54688 511.21289 L 906.54688 538.86719 L 898.58008 538.86719 L 898.58008 542.99414 L 919.3418 542.99414 L 919.3418 538.86719 L 911.375 538.86719 L 911.375 506.74609 L 906.49805 506.74609 z "
       id="path1555"
       transform="translate(0,-6.400017)" />
    <path
       style="font-style:normal;font-weight:normal;font-size:49.58346558px;line-height:1.25;font-family:sans-serif;letter-spacing:0px;word-spacing:0px;fill:#000000;fill-opacity:1;stroke:none;stroke-width:1.23958659"
       d="M 1174.4277 506.08984 C 1172.9953 506.08984 1171.4654 506.21953 1169.8398 506.47852 C 1168.2304 506.7375 1166.5013 507.12657 1164.6504 507.64453 L 1164.6504 512.01367 C 1166.4852 511.39859 1168.1663 510.94565 1169.6953 510.6543 C 1171.2243 510.36294 1172.6563 510.2168 1173.9922 510.2168 C 1176.4386 510.2168 1178.3135 510.71911 1179.6172 511.72266 C 1180.937 512.71002 1181.5977 514.13467 1181.5977 515.99609 C 1181.5977 517.80896 1180.9629 519.2007 1179.6914 520.17188 C 1178.4199 521.12687 1176.5837 521.60352 1174.1855 521.60352 L 1169.793 521.60352 L 1169.793 525.63477 L 1173.9922 525.63477 C 1176.6478 525.63477 1178.7166 526.24111 1180.1973 527.45508 C 1181.6941 528.65286 1182.4434 530.32044 1182.4434 532.45703 C 1182.4434 534.77167 1181.6388 536.53603 1180.0293 537.75 C 1178.4359 538.96397 1176.1088 539.57031 1173.0508 539.57031 C 1171.2965 539.57031 1169.6153 539.3695 1168.0059 538.96484 C 1166.3964 538.56019 1164.9164 537.9611 1163.5645 537.16797 L 1163.5645 541.90234 C 1165.2705 542.50124 1166.9183 542.94497 1168.5117 543.23633 C 1170.1212 543.54387 1171.6824 543.69922 1173.1953 543.69922 C 1177.7018 543.69922 1181.1786 542.71831 1183.625 540.75977 C 1186.0714 538.80122 1187.2949 536.0342 1187.2949 532.45703 C 1187.2949 530.1262 1186.6362 528.16829 1185.3164 526.58203 C 1184.0127 524.99577 1182.1931 523.95099 1179.8594 523.44922 C 1181.9678 522.91507 1183.5936 521.95982 1184.7363 520.58398 C 1185.8791 519.19196 1186.4512 517.49343 1186.4512 515.48633 C 1186.4512 512.60517 1185.3715 510.32205 1183.2148 508.63867 C 1181.0581 506.93911 1178.1295 506.08984 1174.4277 506.08984 z M 1221.0215 506.74609 L 1212.4023 508.49414 L 1212.4023 512.96094 L 1221.0703 511.21289 L 1221.0703 538.86719 L 1213.1035 538.86719 L 1213.1035 542.99414 L 1233.8652 542.99414 L 1233.8652 538.86719 L 1225.8984 538.86719 L 1225.8984 506.74609 L 1221.0215 506.74609 z M 1255.834 506.74609 L 1240.8418 529.71289 L 1240.8418 534.44727 L 1257.1133 534.44727 L 1257.1133 542.99414 L 1261.9668 542.99414 L 1261.9668 534.44727 L 1267.1094 534.44727 L 1267.1094 530.36914 L 1261.9668 530.36914 L 1261.9668 506.74609 L 1255.834 506.74609 z "
       id="path1553"
       transform="translate(0,-6.400017)" />
    <path
       style="font-style:normal;font-weight:normal;font-size:49.58346558px;line-height:1.25;font-family:sans-serif;letter-spacing:0px;word-spacing:0px;fill:#000000;fill-opacity:1;stroke:none;stroke-width:1.23958659"
       d="M 939.62109 506.08984 C 935.58132 506.08984 932.49216 507.7008 930.35156 510.92188 C 928.22706 514.12676 927.16406 518.78783 927.16406 524.90625 C 927.16406 531.00848 928.22706 535.66955 930.35156 538.89062 C 932.49216 542.09551 935.58132 543.69922 939.62109 543.69922 C 943.66087 543.69922 946.74268 542.09551 948.86719 538.89062 C 951.00779 535.66955 952.07812 531.00848 952.07812 524.90625 C 952.07813 518.78783 951.00779 514.12676 948.86719 510.92188 C 946.74268 507.7008 943.66087 506.08984 939.62109 506.08984 z M 1095.2168 506.08984 C 1093.8005 506.08984 1092.2392 506.29261 1090.5332 506.69727 C 1088.8272 507.10192 1086.9929 507.70101 1085.0293 508.49414 L 1085.0293 513.44727 C 1086.9607 512.36278 1088.771 511.55173 1090.4609 511.01758 C 1092.167 510.48343 1093.7855 510.2168 1095.3145 510.2168 C 1097.4711 510.2168 1099.2169 510.82509 1100.5527 512.03906 C 1101.9047 513.25303 1102.5801 514.82188 1102.5801 516.74805 C 1102.5801 517.92965 1102.2664 519.13508 1101.6387 520.36523 C 1101.0271 521.57921 1099.9401 523.06968 1098.3789 524.83398 C 1097.5581 525.77279 1095.5466 527.86765 1092.3438 531.12109 C 1089.157 534.35835 1086.638 536.94102 1084.7871 538.86719 L 1084.7871 542.99414 L 1107.6738 542.99414 L 1107.6738 538.86719 L 1090.6543 538.86719 C 1094.5814 534.8368 1097.6226 531.70441 1099.7793 529.4707 C 1101.936 527.22081 1103.2168 525.86198 1103.6191 525.39258 C 1105.0838 523.57971 1106.0895 522.00892 1106.6367 520.68164 C 1107.2 519.33818 1107.4805 517.92273 1107.4805 516.43359 C 1107.4805 513.29345 1106.3715 510.78386 1104.1504 508.90625 C 1101.9293 507.02864 1098.9508 506.08984 1095.2168 506.08984 z M 985.12891 506.74609 L 976.50977 508.49414 L 976.50977 512.96094 L 985.17773 511.21289 L 985.17773 538.86719 L 977.21094 538.86719 L 977.21094 542.99414 L 997.97266 542.99414 L 997.97266 538.86719 L 990.00586 538.86719 L 990.00586 506.74609 L 985.12891 506.74609 z M 1016.5859 506.74609 L 1007.9668 508.49414 L 1007.9668 512.96094 L 1016.6348 511.21289 L 1016.6348 538.86719 L 1008.668 538.86719 L 1008.668 542.99414 L 1029.4297 542.99414 L 1029.4297 538.86719 L 1021.4629 538.86719 L 1021.4629 506.74609 L 1016.5859 506.74609 z M 1063.7598 506.74609 L 1055.1406 508.49414 L 1055.1406 512.96094 L 1063.8086 511.21289 L 1063.8086 538.86719 L 1055.8418 538.86719 L 1055.8418 542.99414 L 1076.6035 542.99414 L 1076.6035 538.86719 L 1068.6367 538.86719 L 1068.6367 506.74609 L 1063.7598 506.74609 z M 939.62109 509.97461 C 942.14797 509.97461 944.03953 511.2202 945.29492 513.71289 C 946.56641 516.18939 947.20117 519.92087 947.20117 524.90625 C 947.20117 529.87544 946.56641 533.60692 945.29492 536.09961 C 944.03953 538.57611 942.14797 539.81445 939.62109 539.81445 C 937.11032 539.81445 935.21875 538.57611 933.94727 536.09961 C 932.69188 533.60692 932.06445 529.87544 932.06445 524.90625 C 932.06445 519.92087 932.69188 516.18939 933.94727 513.71289 C 935.21875 511.2202 937.11032 509.97461 939.62109 509.97461 z "
       id="path1551"
       transform="translate(0,-6.400017)" />
    <path
       style="font-style:normal;font-weight:normal;font-size:49.58346558px;line-height:1.25;font-family:sans-serif;letter-spacing:0px;word-spacing:0px;fill:#000000;fill-opacity:1;stroke:none;stroke-width:1.23958659"
       d="M 798.09961 506.08984 C 794.52658 506.08984 791.71052 506.93186 789.65039 508.61523 C 787.60636 510.29861 786.58398 512.58898 786.58398 515.48633 C 786.58398 517.55817 787.16344 519.31333 788.32227 520.75391 C 789.49718 522.19449 791.13229 523.17344 793.22461 523.69141 C 790.87478 524.24174 789.03852 525.31943 787.71875 526.92188 C 786.39898 528.52432 785.74023 530.48223 785.74023 532.79688 C 785.74023 536.3093 786.80128 539.0052 788.92578 540.88281 C 791.06638 542.76042 794.12421 543.69922 798.09961 543.69922 C 802.07501 543.69922 805.1255 542.76042 807.25 540.88281 C 809.3906 539.0052 810.46094 536.3093 810.46094 532.79688 C 810.46094 530.48223 809.80219 528.52432 808.48242 526.92188 C 807.17875 525.31943 805.35178 524.24174 803.00195 523.69141 C 805.07817 523.17344 806.69469 522.19449 807.85352 520.75391 C 809.02843 519.31333 809.61523 517.55817 809.61523 515.48633 C 809.61523 512.58898 808.59481 510.29861 806.55078 508.61523 C 804.50675 506.93186 801.68873 506.08984 798.09961 506.08984 z M 860.41211 506.08984 C 856.7747 506.08984 853.86076 507.21495 851.67188 509.46484 C 849.48299 511.71474 848.38867 514.70098 848.38867 518.42383 C 848.38867 522.22761 849.43503 525.2303 851.52734 527.43164 C 853.63575 529.61679 856.49244 530.70898 860.09766 530.70898 C 861.83589 530.70898 863.42108 530.33637 864.85352 529.5918 C 866.28595 528.84723 867.46885 527.77874 868.40234 526.38672 C 868.16092 530.82176 867.18651 534.13321 865.48047 536.31836 C 863.79052 538.48732 861.33613 539.57031 858.11719 539.57031 C 856.91008 539.57031 855.67922 539.41691 854.42383 539.10938 C 853.16844 538.80184 851.92828 538.35614 850.70508 537.77344 L 850.70508 542.24219 C 852.05704 542.72778 853.3618 543.09119 854.61719 543.33398 C 855.87258 543.57678 857.11078 543.69922 858.33398 543.69922 C 862.88879 543.69922 866.5114 541.99873 869.19922 538.59961 C 871.90313 535.1843 873.25391 530.62001 873.25391 524.90625 C 873.25391 518.78783 872.15224 514.12676 869.94727 510.92188 C 867.75838 507.7008 864.58065 506.08984 860.41211 506.08984 z M 798.09961 509.97461 C 800.19192 509.97461 801.82704 510.50063 803.00195 511.55273 C 804.19296 512.60484 804.78711 514.06966 804.78711 515.94727 C 804.78711 517.82488 804.19296 519.28969 803.00195 520.3418 C 801.82704 521.39391 800.19192 521.91992 798.09961 521.91992 C 795.9912 521.91992 794.3507 521.39391 793.17578 520.3418 C 792.01696 519.28969 791.4375 517.82488 791.4375 515.94727 C 791.4375 514.06966 792.01696 512.60484 793.17578 511.55273 C 794.3507 510.50063 795.9912 509.97461 798.09961 509.97461 z M 798.09961 525.78125 C 800.43335 525.78125 802.26031 526.40405 803.58008 527.65039 C 804.91594 528.89674 805.58398 530.61172 805.58398 532.79688 C 805.58398 534.96584 804.91594 536.68083 803.58008 537.94336 C 802.24422 539.1897 800.41725 539.81445 798.09961 539.81445 C 795.78197 539.81445 793.95696 539.1897 792.62109 537.94336 C 791.30133 536.69701 790.64062 534.98203 790.64062 532.79688 C 790.64062 530.61172 791.30133 528.89674 792.62109 527.65039 C 793.95696 526.40405 795.78197 525.78125 798.09961 525.78125 z "
       id="path1549"
       transform="translate(0,-6.400017)" />
    <path
       style="font-style:normal;font-weight:normal;font-size:49.58346558px;line-height:1.25;font-family:sans-serif;letter-spacing:0px;word-spacing:0px;fill:#000000;fill-opacity:1;stroke:none;stroke-width:1.23958659"
       d="m 1072.2692,414.53725 v 18.20899 c 1.352,-0.61508 2.6715,-1.06802 3.959,-1.35938 1.3037,-0.29135 2.6085,-0.4375 3.9121,-0.4375 2.7844,0 4.9878,0.73799 6.6133,2.21094 1.6256,1.47295 2.4395,3.47103 2.4395,5.99609 0,2.52507 -0.8139,4.5251 -2.4395,5.99805 -1.6255,1.47295 -3.8289,2.20899 -6.6133,2.20899 -1.7221,0 -3.3572,-0.19552 -4.9023,-0.58399 -1.5451,-0.38847 -3.0417,-0.97835 -4.4902,-1.77148 v 4.92968 c 1.6738,0.51797 3.2923,0.90509 4.8535,1.16407 1.5773,0.25898 3.1218,0.38867 4.6347,0.38867 4.3939,0 7.7987,-1.07574 10.2129,-3.22852 2.4142,-2.16896 3.6211,-5.20457 3.6211,-9.10547 0,-3.78759 -1.1755,-6.79029 -3.5254,-9.00781 -2.3498,-2.21752 -5.5368,-3.32617 -9.5605,-3.32617 -0.7082,0 -1.4168,0.0658 -2.125,0.19531 -0.7082,0.11331 -1.4149,0.29041 -2.1231,0.53321 v -8.88672 h 14.6778 v -4.12696 z"
       id="path1547"
       inkscape:connector-curvature="0" />
    <path
       style="font-style:normal;font-weight:normal;font-size:49.58346558px;line-height:1.25;font-family:sans-serif;letter-spacing:0px;word-spacing:0px;fill:#000000;fill-opacity:1;stroke:none;stroke-width:1.23958659"
       d="m 1007.2888,412.0475 -14.9922,22.96875 v 4.73438 h 16.2734 v 8.54687 h 4.8516 v -8.54687 h 5.1426 v -4.08008 h -5.1426 V 412.0475 Z m 1.2812,4.27344 v 19.34961 h -12.31246 z"
       id="path1545"
       inkscape:connector-curvature="0" />
    <path
       style="font-style:normal;font-weight:normal;font-size:49.58346558px;line-height:1.25;font-family:sans-serif;letter-spacing:0px;word-spacing:0px;fill:#000000;fill-opacity:1;stroke:none;stroke-width:1.23958659"
       d="m 815.10864,413.29237 -8.61914,1.74805 v 4.4668 l 8.66601,-1.74805 v 27.6543 h -7.9668 v 4.1289 h 20.76172 v -4.1289 h -7.96679 v -32.1211 z"
       id="path1543"
       inkscape:connector-curvature="0" />
    <rect
       style="fill:#c96dad;fill-opacity:1;stroke:#000000;stroke-width:2;stroke-miterlimit:4;stroke-dasharray:none;stroke-opacity:1"
       id="rect1605"
       width="84.651329"
       height="65.978241"
       x="1137.8135"
       y="396.38937"
       ry="6.8425798" />
    <path
       style="font-style:normal;font-weight:normal;font-size:49.58346558px;line-height:1.25;font-family:sans-serif;letter-spacing:0px;word-spacing:0px;fill:#000000;fill-opacity:1;stroke:none;stroke-width:1.23958659"
       d="m 1194.7472,413.88099 c -4.5548,0 -8.1847,1.70774 -10.8886,5.12305 -2.7039,3.39912 -4.0547,7.96341 -4.0547,13.69336 0,6.10223 1.1016,10.76525 3.3066,13.98633 2.205,3.20489 5.392,4.80664 9.5606,4.80664 3.6374,0 6.5513,-1.12511 8.7402,-3.375 2.1889,-2.2499 3.2832,-5.23614 3.2832,-8.95899 0,-3.80378 -1.0556,-6.80647 -3.1641,-9.00781 -2.0923,-2.21752 -4.949,-3.32617 -8.5703,-3.32617 -1.7221,0 -3.298,0.37987 -4.7304,1.14062 -1.4325,0.74457 -2.6247,1.82227 -3.5743,3.23047 0.2415,-4.41886 1.2085,-7.7211 2.8985,-9.90625 1.706,-2.18515 4.1678,-3.27734 7.3867,-3.27734 1.2232,0 2.4541,0.1534 3.6934,0.46094 1.2553,0.30754 2.4955,0.75323 3.7187,1.33594 v -4.46876 c -1.352,-0.48558 -2.6567,-0.849 -3.9121,-1.09179 -1.2393,-0.2428 -2.4702,-0.36524 -3.6934,-0.36524 z m 32.834,0.65625 v 4.12696 h 17.3086 l -12.3125,32.12304 h 5.0938 l 13.0859,-34.16211 v -2.08789 z m -34.9101,16.16993 c 2.1888,0 3.9199,0.75248 5.1914,2.25781 1.2876,1.50532 1.9297,3.56922 1.9297,6.1914 0,2.606 -0.6421,4.6699 -1.9297,6.19141 -1.2715,1.50533 -3.0026,2.25781 -5.1914,2.25781 -2.1889,0 -3.9273,-0.75248 -5.2149,-2.25781 -1.2715,-1.52151 -1.9062,-3.58541 -1.9062,-6.19141 0,-2.62218 0.6347,-4.68608 1.9062,-6.1914 1.2876,-1.50533 3.026,-2.25781 5.2149,-2.25781 z"
       id="path1541"
       inkscape:connector-curvature="0" />
    <path
       style="font-style:normal;font-weight:normal;font-size:49.58346558px;line-height:1.25;font-family:sans-serif;letter-spacing:0px;word-spacing:0px;fill:#000000;fill-opacity:1;stroke:none;stroke-width:1.23958659"
       d="m 878.46385,416.37074 c -1.41633,0 -2.97755,0.20277 -4.68359,0.60743 -1.70604,0.40465 -3.54035,1.00374 -5.50391,1.79687 v 4.95313 c 1.93137,-1.08449 3.7417,-1.89359 5.43164,-2.42774 1.70604,-0.53415 3.32452,-0.80078 4.85352,-0.80078 2.15669,0 3.90242,0.60634 5.23828,1.82031 1.35196,1.21397 2.02734,2.78477 2.02734,4.71094 0,1.1816 -0.31371,2.38703 -0.9414,3.61719 -0.6116,1.21397 -1.69663,2.70249 -3.25782,4.46679 -0.82083,0.93881 -2.83425,3.03562 -6.0371,6.28907 -3.18676,3.23726 -5.7038,5.81797 -7.55469,7.74414 v 4.1289 h 22.88672 v -4.1289 h -17.02149 c 3.92712,-4.03039 6.97026,-7.16278 9.12696,-9.39649 2.15669,-2.24989 3.43552,-3.60872 3.83789,-4.07812 1.46462,-1.81287 2.47035,-3.38366 3.01757,-4.71094 0.56332,-1.34346 0.84571,-2.75891 0.84571,-4.24805 0,-3.14014 -1.11096,-5.64973 -3.33203,-7.52734 -2.22108,-1.87761 -5.19962,-2.81641 -8.9336,-2.81641 z m 47.75391,0 c -1.43243,0 -2.96232,0.12969 -4.58789,0.38868 -1.60948,0.25898 -3.33856,0.64805 -5.18946,1.16601 v 4.3711 c 1.8348,-0.61508 3.51593,-1.06998 5.04493,-1.36133 1.529,-0.29136 2.96296,-0.43555 4.29882,-0.43555 2.4464,0 4.32133,0.50036 5.625,1.50391 1.31977,0.98736 1.97852,2.41201 1.97852,4.27343 0,1.81287 -0.63477,3.20461 -1.90625,4.17578 -1.27148,0.955 -3.10774,1.4336 -5.50586,1.4336 h -4.39258 v 4.0293 h 4.20117 c 2.65564,0 4.72241,0.60829 6.20313,1.82226 1.49681,1.19779 2.24609,2.86536 2.24609,5.00195 0,2.31464 -0.80459,4.07705 -2.41406,5.29102 -1.59338,1.21397 -3.92052,1.82227 -6.97851,1.82227 -1.75433,0 -3.43545,-0.20277 -5.04493,-0.60743 -1.60947,-0.40465 -3.08945,-1.00374 -4.4414,-1.79687 v 4.73437 c 1.70604,0.5989 3.35584,1.04459 4.94922,1.33594 1.60947,0.30754 3.17068,0.46094 4.68359,0.46094 4.50652,0 7.98133,-0.97896 10.42773,-2.9375 2.4464,-1.95854 3.66993,-4.72556 3.66993,-8.30274 0,-2.33082 -0.65875,-4.29069 -1.97852,-5.87695 -1.30367,-1.58626 -3.12329,-2.62908 -5.45703,-3.13086 2.10841,-0.53415 3.73423,-1.4894 4.87695,-2.86523 1.14273,-1.39202 1.71485,-3.09251 1.71485,-5.09961 0,-2.88116 -1.07964,-5.16233 -3.23633,-6.8457 -2.1567,-1.69957 -5.08532,-2.55079 -8.78711,-2.55079 z"
       id="text1530"
       inkscape:connector-curvature="0" />
  </g>
</svg>
