<?xml version="1.0" encoding="UTF-8" standalone="no"?>
<svg
   xmlns:dc="http://purl.org/dc/elements/1.1/"
   xmlns:cc="http://creativecommons.org/ns#"
   xmlns:rdf="http://www.w3.org/1999/02/22-rdf-syntax-ns#"
   xmlns:svg="http://www.w3.org/2000/svg"
   xmlns="http://www.w3.org/2000/svg"
   xmlns:sodipodi="http://sodipodi.sourceforge.net/DTD/sodipodi-0.dtd"
   xmlns:inkscape="http://www.inkscape.org/namespaces/inkscape"
   width="1000.0001"
   height="1000.0001"
   viewBox="0 0 264.58334 264.58336"
   version="1.1"
   id="svg8"
   inkscape:version="1.0.1 (3bc2e813f5, 2020-09-07, custom)"
   sodipodi:docname="logo.svg">
  <defs
     id="defs2" />
  <sodipodi:namedview
     id="base"
     pagecolor="#ffffff"
     bordercolor="#666666"
     borderopacity="1.0"
     inkscape:pageopacity="0.0"
     inkscape:pageshadow="2"
     inkscape:zoom="0.61018304"
     inkscape:cx="527.64463"
     inkscape:cy="344.1036"
     inkscape:document-units="px"
     inkscape:current-layer="layer1"
     inkscape:document-rotation="0"
     showgrid="false"
     units="px"
     inkscape:window-width="2558"
     inkscape:window-height="1078"
     inkscape:window-x="0"
     inkscape:window-y="0"
     inkscape:window-maximized="0"
     inkscape:snap-bbox="true"
     inkscape:object-paths="true"
     inkscape:snap-smooth-nodes="true"
     showguides="true"
     inkscape:guide-bbox="true"
     inkscape:snap-page="false"
     inkscape:snap-midpoints="true"
     inkscape:snap-object-midpoints="true" />
  <metadata
     id="metadata5">
    <rdf:RDF>
      <cc:Work
         rdf:about="">
        <dc:format>image/svg+xml</dc:format>
        <dc:type
           rdf:resource="http://purl.org/dc/dcmitype/StillImage" />
        <dc:title></dc:title>
      </cc:Work>
    </rdf:RDF>
  </metadata>
  <g
     inkscape:label="Layer 1"
     inkscape:groupmode="layer"
     id="layer1"
     transform="translate(456.91452,-27.517588)">
    <rect
       style="fill:#404040;fill-opacity:1;stroke:none;stroke-width:19.6632;stroke-linecap:round;stroke-linejoin:round;stroke-opacity:1;paint-order:stroke fill markers"
       id="rect882"
       width="264.58334"
       height="264.58334"
       x="-456.91452"
       y="27.517588" />
    <path
       id="path979"
       style="color:#000000;font-style:normal;font-variant:normal;font-weight:normal;font-stretch:normal;font-size:medium;line-height:normal;font-family:sans-serif;font-variant-ligatures:normal;font-variant-position:normal;font-variant-caps:normal;font-variant-numeric:normal;font-variant-alternates:normal;font-variant-east-asian:normal;font-feature-settings:normal;font-variation-settings:normal;text-indent:0;text-align:start;text-decoration:none;text-decoration-line:none;text-decoration-style:solid;text-decoration-color:#000000;letter-spacing:normal;word-spacing:normal;text-transform:none;writing-mode:lr-tb;direction:ltr;text-orientation:mixed;dominant-baseline:auto;baseline-shift:baseline;text-anchor:start;white-space:normal;shape-padding:0;shape-margin:0;inline-size:0;clip-rule:nonzero;display:inline;overflow:visible;visibility:visible;opacity:1;isolation:auto;mix-blend-mode:normal;color-interpolation:sRGB;color-interpolation-filters:linearRGB;solid-color:#000000;solid-opacity:1;vector-effect:none;fill:none;fill-opacity:1;fill-rule:nonzero;stroke:#ad9253;stroke-width:18.52083224;stroke-linecap:round;stroke-linejoin:round;stroke-miterlimit:4;stroke-dasharray:none;stroke-dashoffset:0;stroke-opacity:1;paint-order:stroke fill markers;color-rendering:auto;image-rendering:auto;shape-rendering:auto;text-rendering:auto;enable-background:accumulate;stop-color:#000000;stop-opacity:1"
       d="m -324.73161,90.693216 c -2.79454,0.02848 -5.6075,0.582791 -8.28788,1.693037 -8.31728,3.445127 -13.75047,11.575877 -13.75047,20.578427 0,1.34236 1.0873,2.43094 2.42964,2.43116 1.3428,3.9e-4 2.43141,-1.08835 2.43076,-2.43116 0,-7.05081 4.23606,-13.391501 10.75019,-16.089737 6.5141,-2.698237 13.99423,-1.21004 18.97993,3.775637 4.9857,4.98568 6.47234,12.46432 3.77413,18.97843 -2.69793,6.51328 -9.03733,10.75022 -16.0871,10.75129 h -0.002 -0.19364 c -1.3417,3.9e-4 -2.42929,1.08793 -2.42965,2.42964 v 16.72685 c -32.30131,18.58211 -65.24764,37.75934 -97.63344,56.13718 -0.77682,0.43426 -1.25413,1.25839 -1.24424,2.14828 0.0552,5.9999 0.24381,12.9031 0.18641,18.47799 v 0.19516 c 0,1.34231 1.08733,2.43081 2.42963,2.43116 h 197.60353 c 0.67586,1e-4 1.32122,-0.28124 1.78114,-0.77647 0.47673,-0.45827 0.74614,-1.091 0.74608,-1.75227 v -18.87286 c -5.8e-4,-0.44001 -0.12044,-0.87162 -0.34703,-1.24879 -0.006,-0.0104 -0.0116,-0.0212 -0.0175,-0.0315 -0.002,-0.002 -0.005,-0.007 -0.008,-0.0103 -0.21292,-0.37309 -0.52092,-0.68306 -0.89263,-0.89834 L -322.064,149.53638 V 135.1067 c 8.01156,-0.87898 15.01728,-6.05572 18.14918,-13.61683 3.44514,-8.31727 1.53686,-17.91083 -4.82888,-24.276599 -4.17756,-4.177537 -9.74472,-6.434732 -15.4291,-6.519281 -0.18609,-0.0028 -0.37221,-0.003 -0.55853,-0.0011 z m -0.13419,63.257344 96.56213,55.03352 v 14.8865 h -192.64705 c 6e-5,-0.009 6e-5,-0.0185 0,-0.0277 l -0.16934,-14.63324 96.25426,-55.25907 c 2.80151,-4.41376 -2.253,-4.41376 0,0 z"
       sodipodi:nodetypes="cscccsssscccccccscccccccccccssssccccccccc" />
  </g>
</svg>
