<?xml version="1.0" encoding="UTF-8" standalone="no"?>
<svg
   xmlns:dc="http://purl.org/dc/elements/1.1/"
   xmlns:cc="http://creativecommons.org/ns#"
   xmlns:rdf="http://www.w3.org/1999/02/22-rdf-syntax-ns#"
   xmlns:svg="http://www.w3.org/2000/svg"
   xmlns="http://www.w3.org/2000/svg"
   xmlns:sodipodi="http://sodipodi.sourceforge.net/DTD/sodipodi-0.dtd"
   xmlns:inkscape="http://www.inkscape.org/namespaces/inkscape"
   width="1000.0001"
   height="1000.0001"
   viewBox="0 0 264.58334 264.58336"
   version="1.1"
   id="svg8"
   inkscape:version="1.0.1 (3bc2e813f5, 2020-09-07, custom)"
   sodipodi:docname="logo.svg">
  <defs
     id="defs2" />
  <sodipodi:namedview
     id="base"
     pagecolor="#ffffff"
     bordercolor="#666666"
     borderopacity="1.0"
     inkscape:pageopacity="0.0"
     inkscape:pageshadow="2"
     inkscape:zoom="0.61018304"
     inkscape:cx="108.91782"
     inkscape:cy="344.1036"
     inkscape:document-units="px"
     inkscape:current-layer="layer1"
     inkscape:document-rotation="0"
     showgrid="false"
     units="px"
     inkscape:window-width="1918"
     inkscape:window-height="1060"
     inkscape:window-x="0"
     inkscape:window-y="1098"
     inkscape:window-maximized="0"
     inkscape:snap-bbox="true"
     inkscape:object-paths="true"
     inkscape:snap-smooth-nodes="true"
     showguides="true"
     inkscape:guide-bbox="true"
     inkscape:snap-page="false"
     inkscape:snap-midpoints="true"
     inkscape:snap-object-midpoints="true" />
  <metadata
     id="metadata5">
    <rdf:RDF>
      <cc:Work
         rdf:about="">
        <dc:format>image/svg+xml</dc:format>
        <dc:type
           rdf:resource="http://purl.org/dc/dcmitype/StillImage" />
        <dc:title></dc:title>
      </cc:Work>
    </rdf:RDF>
  </metadata>
  <g
     inkscape:label="Layer 1"
     inkscape:groupmode="layer"
     id="layer1"
     transform="translate(456.91452,-27.517588)">
    <rect
       style="fill:#404040;fill-opacity:1;stroke:none;stroke-width:19.6632;stroke-linecap:round;stroke-linejoin:round;stroke-opacity:1;paint-order:stroke fill markers"
       id="rect882"
       width="264.58334"
       height="264.58334"
       x="-456.91452"
       y="27.517588" />
    <path
       id="path979"
       style="color:#000000;font-style:normal;font-variant:normal;font-weight:normal;font-stretch:normal;font-size:medium;line-height:normal;font-family:sans-serif;font-variant-ligatures:normal;font-variant-position:normal;font-variant-caps:normal;font-variant-numeric:normal;font-variant-alternates:normal;font-variant-east-asian:normal;font-feature-settings:normal;font-variation-settings:normal;text-indent:0;text-align:start;text-decoration:none;text-decoration-line:none;text-decoration-style:solid;text-decoration-color:#000000;letter-spacing:normal;word-spacing:normal;text-transform:none;writing-mode:lr-tb;direction:ltr;text-orientation:mixed;dominant-baseline:auto;baseline-shift:baseline;text-anchor:start;white-space:normal;shape-padding:0;shape-margin:0;inline-size:0;clip-rule:nonzero;display:inline;overflow:visible;visibility:visible;opacity:1;isolation:auto;mix-blend-mode:normal;color-interpolation:sRGB;color-interpolation-filters:linearRGB;solid-color:#000000;solid-opacity:1;vector-effect:none;fill:#ad9253;fill-opacity:1;fill-rule:nonzero;stroke:none;stroke-width:5.11464;stroke-linecap:round;stroke-linejoin:round;stroke-miterlimit:4;stroke-dasharray:none;stroke-dashoffset:0;stroke-opacity:1;paint-order:stroke fill markers;color-rendering:auto;image-rendering:auto;shape-rendering:auto;text-rendering:auto;enable-background:accumulate;stop-color:#000000;stop-opacity:1"
       d="m -324.73724,87.072273 c -2.94094,0.02997 -5.90126,0.613321 -8.72206,1.781733 -8.75302,3.625618 -14.47084,12.182324 -14.47084,21.656514 0,1.41269 1.14425,2.5583 2.55691,2.55852 1.41316,4.1e-4 2.5588,-1.14537 2.55812,-2.55852 0,-7.4202 4.45798,-14.093075 11.31337,-16.932663 6.85538,-2.839591 14.72738,-1.273438 19.97427,3.973439 5.24689,5.246874 6.81142,13.117304 3.97185,19.972684 -2.83926,6.85451 -9.51078,11.31342 -16.92988,11.31454 h -0.003 -0.20379 c -1.41199,4.1e-4 -2.55656,1.14493 -2.55693,2.55693 v 17.60315 c -33.99355,19.55561 -68.6659,39.73751 -102.74836,59.07815 -0.81751,0.45701 -1.31983,1.32431 -1.30943,2.26083 0.0581,6.31422 0.25659,13.57907 0.19619,19.44603 v 0.20539 c 0,1.41262 1.14429,2.55815 2.55692,2.55852 h 207.95577 c 0.71125,1e-4 1.39043,-0.29598 1.87444,-0.81715 0.50171,-0.48227 0.78524,-1.14815 0.78517,-1.84407 v -19.86159 c -6.1e-4,-0.46306 -0.12675,-0.91729 -0.36521,-1.31422 -0.006,-0.0111 -0.0122,-0.0222 -0.0184,-0.0332 -0.002,-0.003 -0.005,-0.007 -0.008,-0.0104 -0.22408,-0.39263 -0.54822,-0.71884 -0.93941,-0.94541 l -102.6608,-58.72292 v -15.18565 c 8.43128,-0.92503 15.80402,-6.37297 19.1,-14.33019 3.62562,-8.75301 1.61737,-18.84917 -5.08187,-25.548436 -4.39641,-4.396395 -10.25523,-6.771836 -16.2374,-6.860814 -0.19585,-0.0029 -0.39172,-0.0032 -0.58779,-0.0012 z m -0.14121,66.571327 101.62092,57.91667 v 15.66639 h -202.73963 c 6e-5,-0.01 6e-5,-0.0195 0,-0.0292 l -0.17821,-15.39987 101.29692,-58.15402 c 2.94827,-4.645 -2.37104,-4.645 0,0 z"
       sodipodi:nodetypes="cscccsssscccccccscccccccccccssssccccccccc" />
  </g>
</svg>
