<?xml version="1.0" encoding="UTF-8" standalone="no"?>
<svg
   xmlns:dc="http://purl.org/dc/elements/1.1/"
   xmlns:cc="http://creativecommons.org/ns#"
   xmlns:rdf="http://www.w3.org/1999/02/22-rdf-syntax-ns#"
   xmlns:svg="http://www.w3.org/2000/svg"
   xmlns="http://www.w3.org/2000/svg"
   xmlns:sodipodi="http://sodipodi.sourceforge.net/DTD/sodipodi-0.dtd"
   xmlns:inkscape="http://www.inkscape.org/namespaces/inkscape"
   version="1.1"
   id="Capa_1"
   x="0px"
   y="0px"
   fill="#ffffff"
   viewBox="0 0 68.978065 99.999999"
   xml:space="preserve"
   sodipodi:docname="right-arrow.svg"
   width="68.978065"
   height="100"
   inkscape:version="1.0.1 (3bc2e813f5, 2020-09-07)"><metadata
   id="metadata13"><rdf:RDF><cc:Work
       rdf:about=""><dc:format>image/svg+xml</dc:format><dc:type
         rdf:resource="http://purl.org/dc/dcmitype/StillImage" /><dc:title></dc:title></cc:Work></rdf:RDF></metadata><defs
   id="defs11" /><sodipodi:namedview
   pagecolor="#ffffff"
   bordercolor="#666666"
   borderopacity="1"
   objecttolerance="10"
   gridtolerance="10"
   guidetolerance="10"
   inkscape:pageopacity="0"
   inkscape:pageshadow="2"
   inkscape:window-width="2558"
   inkscape:window-height="1060"
   id="namedview9"
   showgrid="false"
   fit-margin-top="0"
   fit-margin-left="0"
   fit-margin-right="0"
   fit-margin-bottom="0"
   inkscape:zoom="1.7167969"
   inkscape:cx="155.04593"
   inkscape:cy="154.52861"
   inkscape:window-x="-8"
   inkscape:window-y="55"
   inkscape:window-maximized="0"
   inkscape:current-layer="g4" />
<g
   id="g6"
   style="fill:#000000"
   transform="rotate(90,266.21964,113.78034)">
	<g
   id="g4"
   style="fill:#000000">
		<path
   d="m 250.80721,341.57166 c -0.001,-0.002 -0.003,-0.003 -0.005,-0.005 l -29.06338,-28.92339 c -2.17996,-2.16995 -5.69988,-2.15995 -7.86984,0.019 -2.16995,2.17995 -2.15995,5.69988 0.018,7.86983 l 19.51359,19.41859 h -75.4014 c -3.06993,0 -5.55988,2.48995 -5.55988,5.55988 0,3.06994 2.48995,5.55988 5.55988,5.55988 h 75.4014 l -19.51259,19.41859 c -2.17995,2.16995 -2.18995,5.68988 -0.019,7.86983 2.16996,2.17996 5.68988,2.18996 7.86984,0.019 l 29.06438,-28.92338 c 0.001,-0.002 0.003,-0.004 0.005,-0.005 2.17995,-2.16996 2.16995,-5.70988 -0.001,-7.87983 z"
   id="path2"
   style="fill:#000000;stroke-width:0.278111"
   sodipodi:nodetypes="sccsccsssccccccs" />
	</g>
</g>
</svg>
