<svg
    fill="#20c9c6"
    xmlns="http://www.w3.org/2000/svg"
    preserveAspectRatio="xMidYMid slice"
    viewBox="-75 -25 77 75"
>
    <path d="m 0,0 a 7.7002913,7.7002913 0 0 0 -8.6925,-3.3634 7.7002913,7.7002913 0 0 0 -5.2646,9.53311 7.7002913,7.7002913 0 0 0 9.5328,5.26436 7.7002913,7.7002913 0 0 0 5.2645,-9.53281 7.7002913,7.7002913 0 0 0 -0.8401,-1.90126 z m -18.9725,-17.66878 a 7.7002913,7.7002913 0 0 0 -8.0813,-3.21038 7.7002913,7.7002913 0 0 0 -5.8175,9.20588 7.7002913,7.7002913 0 0 0 9.2063,5.81735 7.7002913,7.7002913 0 0 0 5.8166,-9.20637 7.7002913,7.7002913 0 0 0 -1.1242,-2.60652 z m -1.8456,25.68115 a 19.762043,19.762043 0 0 0 -21.8429,-8.55251 19.762043,19.762043 0 0 0 -13.9644,24.20894 19.762043,19.762043 0 0 0 24.2085,13.96397 19.762043,19.762043 0 0 0 13.9649,-24.20898 19.762043,19.762043 0 0 0 -2.3661,-5.41142 z m -21.204,-28.20026 a 7.7002913,7.7002913 0 0 0 -8.0212,-2.84035 7.7002913,7.7002913 0 0 0 -5.6021,9.33806 7.7002913,7.7002913 0 0 0 9.3375,5.60234 7.7002913,7.7002913 0 0 0 5.6025,-9.33849 7.7002913,7.7002913 0 0 0 -1.3167,-2.76156 z m -18.4394,18.09941 a 7.7002913,7.7002913 0 0 0 -9.9963,-2.61064 7.7002913,7.7002913 0 0 0 -3.2754,10.38544 7.7002913,7.7002913 0 0 0 10.3857,3.27463 7.7002913,7.7002913 0 0 0 3.2745,-10.38571 7.7002913,7.7002913 0 0 0 -0.3884,-0.66384 z" />
</svg>
