<?xml version="1.0" encoding="UTF-8" standalone="no"?>
<!-- Created with Inkscape (http://www.inkscape.org/) -->

<svg
   xmlns:dc="http://purl.org/dc/elements/1.1/"
   xmlns:cc="http://creativecommons.org/ns#"
   xmlns:rdf="http://www.w3.org/1999/02/22-rdf-syntax-ns#"
   xmlns:svg="http://www.w3.org/2000/svg"
   xmlns="http://www.w3.org/2000/svg"
   xmlns:xlink="http://www.w3.org/1999/xlink"
   xmlns:sodipodi="http://sodipodi.sourceforge.net/DTD/sodipodi-0.dtd"
   xmlns:inkscape="http://www.inkscape.org/namespaces/inkscape"
   width="1040.3317"
   height="861.93506"
   viewBox="0 0 1040.3317 861.93504"
   version="1.1"
   id="svg8"
   inkscape:version="0.92.4 5da689c313, 2019-01-14"
   sodipodi:docname="logo.svg">
  <defs
     id="defs2">
    <linearGradient
       inkscape:collect="always"
       xlink:href="#linearGradient2440"
       id="linearGradient3635"
       gradientUnits="userSpaceOnUse"
       gradientTransform="matrix(3.7795276,0,0,3.7795276,-671.24823,-6366.8283)"
       x1="-213.29411"
       y1="714.65973"
       x2="-3.1842544"
       y2="490.3707" />
    <linearGradient
       id="linearGradient2440"
       inkscape:collect="always">
      <stop
         id="stop2436"
         offset="0"
         style="stop-color:#cc0000;stop-opacity:1" />
      <stop
         id="stop2438"
         offset="1"
         style="stop-color:#663399;stop-opacity:1" />
    </linearGradient>
    <linearGradient
       inkscape:collect="always"
       xlink:href="#linearGradient2440"
       id="linearGradient3637"
       gradientUnits="userSpaceOnUse"
       gradientTransform="matrix(3.7795276,0,0,3.7795276,-789.79727,-6480.5054)"
       x1="-213.29411"
       y1="714.65973"
       x2="-3.1842544"
       y2="490.3707" />
    <linearGradient
       inkscape:collect="always"
       xlink:href="#linearGradient2440"
       id="linearGradient3639"
       gradientUnits="userSpaceOnUse"
       gradientTransform="matrix(3.7795276,0,0,3.7795276,-725.12003,-6339.6448)"
       x1="-213.29411"
       y1="714.65973"
       x2="-3.1842544"
       y2="490.3707" />
    <linearGradient
       inkscape:collect="always"
       xlink:href="#linearGradient2440"
       id="linearGradient2544"
       gradientUnits="userSpaceOnUse"
       gradientTransform="translate(316.38658,169.01205)"
       x1="-213.29411"
       y1="714.65973"
       x2="-3.1842544"
       y2="490.3707" />
    <linearGradient
       inkscape:collect="always"
       xlink:href="#linearGradient2440"
       id="linearGradient1664"
       gradientUnits="userSpaceOnUse"
       gradientTransform="matrix(3.7795276,0,0,3.7795276,-725.12003,-6339.6448)"
       x1="-213.29411"
       y1="714.65973"
       x2="-3.1842544"
       y2="490.3707" />
  </defs>
  <sodipodi:namedview
     id="base"
     pagecolor="#ffffff"
     bordercolor="#666666"
     borderopacity="1.0"
     inkscape:pageopacity="0.0"
     inkscape:pageshadow="2"
     inkscape:zoom="0.80329513"
     inkscape:cx="255.44036"
     inkscape:cy="379.43725"
     inkscape:document-units="px"
     inkscape:current-layer="layer1"
     showgrid="false"
     units="px"
     showborder="false"
     inkscape:window-width="2558"
     inkscape:window-height="1078"
     inkscape:window-x="0"
     inkscape:window-y="0"
     inkscape:window-maximized="0"
     fit-margin-top="0"
     fit-margin-left="0"
     fit-margin-right="0"
     fit-margin-bottom="0" />
  <metadata
     id="metadata5">
    <rdf:RDF>
      <cc:Work
         rdf:about="">
        <dc:format>image/svg+xml</dc:format>
        <dc:type
           rdf:resource="http://purl.org/dc/dcmitype/StillImage" />
        <dc:title></dc:title>
      </cc:Work>
    </rdf:RDF>
  </metadata>
  <g
     inkscape:label="Layer 1"
     inkscape:groupmode="layer"
     id="layer1"
     transform="translate(1553.7105,4568.5343)">
    <path
       transform="matrix(3.7795276,0,0,3.7795276,-1928.3267,-7057.3313)"
       style="fill:url(#linearGradient2544);fill-opacity:1;stroke:none;stroke-width:0.39628914;stroke-miterlimit:4;stroke-dasharray:none;stroke-opacity:1"
       d="m 99.140625,882.13281 c -0.477794,4.85985 6.495315,6.20037 7.853515,1.50977 18.58853,-112.83764 85.74535,-40.59585 140.08398,1.73047 3.90287,2.68212 8.4193,-2.42037 5.28321,-5.96875 -68.58982,-86.76976 -149.96187,-141.59496 -153.220705,2.72851 z"
       id="path2532"
       inkscape:connector-curvature="0"
       sodipodi:nodetypes="ccccc" />
    <path
       transform="translate(-2.9566848)"
       style="fill:url(#linearGradient1664);fill-opacity:1;stroke:none;stroke-width:1.49778569;stroke-miterlimit:4;stroke-dasharray:none;stroke-opacity:1;paint-order:markers stroke fill"
       d="m -1046.8633,-4568.5332 c -5.2888,0.056 -10.2856,2.4344 -13.664,6.5039 -219.8246,307.8495 -412.439,415.9127 -454.3692,15.4023 -1.3358,-9.5859 -10.01,-16.4012 -19.6397,-15.4311 -9.6297,0.9702 -16.7701,9.3789 -16.1669,19.0386 14.3184,658.9115 323.9627,349.8672 519.6719,1.416 6.8915,-12.0785 -1.9267,-27.0779 -15.8321,-26.9297 z"
       id="path2534"
       inkscape:connector-curvature="0"
       sodipodi:nodetypes="cccsccc" />
    <path
       transform="rotate(-8.5071396,-1025.3027,-4840.0282)"
       style="fill:url(#linearGradient3637);fill-opacity:1;stroke:none;stroke-width:0.99999994px;stroke-linecap:butt;stroke-linejoin:miter;stroke-opacity:1"
       d="m -965.86523,-4555.8594 c -23.70493,-0.6659 -46.70317,10.8768 -58.74217,32.461 -12.039,21.5841 -15.4016,50.4671 -12.4824,88.7011 5.8382,76.4681 38.42529,192.2933 106.70503,361.4942 3.49032,8.6147 13.02298,13.0918 21.88138,10.2768 8.85841,-2.815 14.05793,-11.9736 11.93503,-21.0229 -83.18481,-447.6479 -16.53163,-336.9084 270.89063,-144.0196 7.18793,5.3225 17.20968,4.4826 23.4114,-1.9621 6.20171,-6.4447 6.656,-16.4914 1.06125,-23.4695 -67.18198,-83.6334 -136.70866,-157.7167 -199.65039,-211.6953 -62.94173,-53.9786 -117.59997,-89.432 -165.00976,-90.7637 z"
       id="path2536"
       inkscape:connector-curvature="0"
       sodipodi:nodetypes="ccccsccscsc" />
    <path
       transform="rotate(-10.041413,-436.48204,-4753.9747)"
       style="fill:url(#linearGradient3635);fill-opacity:1;stroke:none;stroke-width:0.99999994px;stroke-linecap:butt;stroke-linejoin:miter;stroke-opacity:1"
       d="m -835.49219,-4289.2402 c -12.59234,-0.2294 -22.17382,11.2366 -19.71093,23.5879 76.57842,415.4807 90.38468,393.885 -215.19728,190.6484 -7.889,-5.0684 -18.2553,-3.885 -24.799,2.8311 -6.5437,6.716 -7.4572,17.1096 -2.1854,24.8642 67.0804,98.5454 136.46336,176.5197 198.92191,228.2617 31.22927,25.871 60.69538,45.2348 88.06055,57.2403 27.36516,12.0055 53.21393,17.1969 76.82031,10.6953 23.60637,-6.5016 41.83707,-26.3826 49.8418,-52.7832 8.00472,-26.4007 8.29109,-59.7623 1.64257,-102.1094 -13.29704,-84.6941 -55.3391,-205.8999 -136.00976,-372.1348 -3.24555,-6.6759 -9.96304,-10.9655 -17.38477,-11.1015 z"
       id="path2538"
       inkscape:connector-curvature="0"
       sodipodi:nodetypes="cccscssscscc" />
  </g>
</svg>
