<?xml version="1.0" encoding="UTF-8" standalone="no"?>
<!-- Created with Inkscape (http://www.inkscape.org/) -->

<svg
   xmlns:dc="http://purl.org/dc/elements/1.1/"
   xmlns:cc="http://creativecommons.org/ns#"
   xmlns:rdf="http://www.w3.org/1999/02/22-rdf-syntax-ns#"
   xmlns:svg="http://www.w3.org/2000/svg"
   xmlns="http://www.w3.org/2000/svg"
   xmlns:sodipodi="http://sodipodi.sourceforge.net/DTD/sodipodi-0.dtd"
   xmlns:inkscape="http://www.inkscape.org/namespaces/inkscape"
   width="210mm"
   height="297mm"
   viewBox="0 0 210 297"
   version="1.1"
   id="svg8"
   sodipodi:docname="nyahs-dog-walking.svg"
   inkscape:version="0.92.4 5da689c313, 2019-01-14">
  <defs
     id="defs2">
    <marker
       inkscape:stockid="Arrow1Lstart"
       orient="auto"
       refY="0.0"
       refX="0.0"
       id="Arrow1Lstart"
       style="overflow:visible"
       inkscape:isstock="true">
      <path
         id="path4535"
         d="M 0.0,0.0 L 5.0,-5.0 L -12.5,0.0 L 5.0,5.0 L 0.0,0.0 z "
         style="fill-rule:evenodd;stroke:#000000;stroke-width:1pt;stroke-opacity:1;fill:#000000;fill-opacity:1"
         transform="scale(0.8) translate(12.5,0)" />
    </marker>
  </defs>
  <sodipodi:namedview
     id="base"
     pagecolor="#ffffff"
     bordercolor="#666666"
     borderopacity="1.0"
     inkscape:pageopacity="0.0"
     inkscape:pageshadow="2"
     inkscape:zoom="0.24748737"
     inkscape:cx="-562.63813"
     inkscape:cy="816.48344"
     inkscape:document-units="mm"
     inkscape:current-layer="layer1"
     showgrid="false"
     inkscape:window-width="1920"
     inkscape:window-height="1080"
     inkscape:window-x="0"
     inkscape:window-y="0"
     inkscape:window-maximized="0" />
  <metadata
     id="metadata5">
    <rdf:RDF>
      <cc:Work
         rdf:about="">
        <dc:format>image/svg+xml</dc:format>
        <dc:type
           rdf:resource="http://purl.org/dc/dcmitype/StillImage" />
        <dc:title />
      </cc:Work>
    </rdf:RDF>
  </metadata>
  <g
     inkscape:label="Layer 1"
     inkscape:groupmode="layer"
     id="layer1"
     style="opacity:0.37099998"
     sodipodi:insensitive="true">
    <path
       style="opacity:1;fill:#ffffff;fill-opacity:0.978125;stroke:#000000;stroke-width:23.37514877;stroke-linecap:round;stroke-linejoin:round;stroke-miterlimit:4;stroke-dasharray:none;stroke-opacity:1;paint-order:markers fill stroke"
       d="m -1732.5299,-156.9005 c -330.4552,-29.25416 -270.3019,166.6910041 -71.7689,332.27941 -221.0118,133.38673 -260.4682,312.09711 59.7804,280.32557 100.9895,1.9e-4 238.8037,-37.91033 238.8036,-138.89979 -0.039,-17.41223 -2.5642,-34.72968 -7.5,-51.42774 h 1176.27144 c -0.23395,3.1555 -0.38765,6.31674 -0.46094,9.48047 8e-5,100.48661 263.190851,185.94325 361.096258,185.94342 C 175.94767,430.05427 64.817519,281.01549 -19.0625,164.92188 -38.001813,162.40518 -42.199932,200.35724 58.785837,93.299182 163.55024,-40.116649 45.461554,-193.55732 -6.5974069,-174.56527 -112.82554,-254.97193 -301.54016,41.06823 -343.85156,42.519531 c -798.01434,27.372268 -774.86074,0 -1162.29104,0 0.2096,-2.853031 0.3523,-5.710588 0.4278,-8.570312 10e-5,-100.989457 -125.8256,-190.849909 -226.8151,-190.849719 z"
       id="path4520"
       inkscape:connector-curvature="0"
       sodipodi:nodetypes="cccccccccccsccc"
       transform="scale(0.26458333)" />
    <path
       style="fill:none;stroke:#000000;stroke-width:6;stroke-linecap:round;stroke-linejoin:miter;stroke-miterlimit:4;stroke-dasharray:none;stroke-opacity:1"
       d="M -5.0436197,43.63558 C -7.7752044,39.792428 -20.442659,53.741032 -14.905959,62.971551"
       id="path4533"
       inkscape:connector-curvature="0"
       sodipodi:nodetypes="cc" />
    <path
       style="fill:none;stroke:#000000;stroke-width:6;stroke-linecap:round;stroke-linejoin:miter;stroke-miterlimit:4;stroke-dasharray:none;stroke-opacity:1"
       d="m -477.38738,46.402336 c 0,0 11.11183,-2.629088 11.64047,12.17331"
       id="path4817"
       inkscape:connector-curvature="0" />
    <path
       style="opacity:1;fill:#999999;fill-opacity:0.978125;stroke:none;stroke-width:1.88976383;stroke-linecap:round;stroke-linejoin:round;stroke-miterlimit:4;stroke-dasharray:none;stroke-opacity:1;paint-order:markers fill stroke"
       d="m -1648.6127,197.69454 c -8.1841,82.12372 -11.3099,227.43979 -169.1432,261.70585 21.9444,0.15222 46.3152,-1.0243 73.2383,-3.69531 100.9895,1.9e-4 238.8029,-37.91093 238.8028,-138.90039 -0.039,-17.41223 -2.5642,-34.72968 -7.5,-51.42774 h 1176.27144 c -0.23395,3.1555 -0.38765,6.31674 -0.46094,9.48047 8e-5,100.48661 263.1903,185.94319 361.095706,185.94336 85.511734,-17.26827 87.939674,-71.85146 58.779297,-136.95312 -2.130212,1.09223 -4.298868,2.22691 -6.542969,3.43945 C -171.83345,461.15808 -159.75086,171.31492 -293.7168,169.4375 c -465.9893,-6.53045 -1353.9083,18.34734 -1354.8959,28.25704 z"
       transform="scale(0.26458333)"
       id="path4821"
       inkscape:connector-curvature="0"
       sodipodi:nodetypes="sccccccccsss" />
    <rect
       style="opacity:1;fill:#000000;fill-opacity:0.9875;stroke:none;stroke-width:0.5;stroke-linecap:round;stroke-linejoin:round;stroke-miterlimit:4;stroke-dasharray:none;stroke-opacity:1;paint-order:markers fill stroke"
       id="rect4848"
       width="321.04416"
       height="273.14944"
       x="144.43245"
       y="-160.99306"
       ry="0.46729386" />
    <ellipse
       style="opacity:1;fill:#d38d5f;fill-opacity:1;stroke:none;stroke-width:0.5;stroke-linecap:round;stroke-linejoin:round;stroke-miterlimit:4;stroke-dasharray:none;stroke-opacity:1;paint-order:markers fill stroke"
       id="path4850"
       cx="301.96109"
       cy="-24.418333"
       rx="75.209648"
       ry="98.408638" />
    <path
       style="opacity:1;fill:#ffffff;fill-opacity:0.98125;stroke:none;stroke-width:2.17580128;stroke-linecap:round;stroke-linejoin:round;stroke-miterlimit:4;stroke-dasharray:none;stroke-opacity:1;paint-order:markers fill stroke"
       d="m 1148.3418,-390.81055 c -38.1422,0 -112.2736,317.654682 -103.4688,428.228519 A 168.29141,134.35029 0 0 0 981.46484,142.46875 168.29141,134.35029 0 0 0 1149.7559,276.82031 168.29141,134.35029 0 0 0 1318.0469,142.46875 168.29141,134.35029 0 0 0 1251.9336,35.927734 c 8.0215,-111.926422 -65.6219,-426.738274 -103.5918,-426.738284 z"
       transform="scale(0.26458333)"
       id="path4852"
       inkscape:connector-curvature="0" />
    <ellipse
       style="opacity:1;fill:#000000;fill-opacity:1;stroke:none;stroke-width:0.80907881;stroke-linecap:round;stroke-linejoin:round;stroke-miterlimit:4;stroke-dasharray:none;stroke-opacity:1;paint-order:markers fill stroke"
       id="path4860"
       cx="254.89496"
       cy="-29.362822"
       rx="17.506153"
       ry="24.668978" />
    <ellipse
       style="opacity:1;fill:#000000;fill-opacity:1;stroke:none;stroke-width:0.58712763;stroke-linecap:round;stroke-linejoin:round;stroke-miterlimit:4;stroke-dasharray:none;stroke-opacity:1;paint-order:markers fill stroke"
       id="path4862"
       cx="350.17657"
       cy="-28.855007"
       rx="16.089624"
       ry="22.55755" />
    <ellipse
       style="opacity:1;fill:#000000;fill-opacity:1;stroke:none;stroke-width:0.5;stroke-linecap:round;stroke-linejoin:round;stroke-miterlimit:4;stroke-dasharray:none;stroke-opacity:1;paint-order:markers fill stroke"
       id="path4864"
       cx="304.20618"
       cy="37.320927"
       rx="11.599498"
       ry="10.476966" />
    <path
       style="fill:none;stroke:#000000;stroke-width:4;stroke-linecap:butt;stroke-linejoin:miter;stroke-miterlimit:4;stroke-dasharray:none;stroke-opacity:1"
       d="m 304.58034,54.533085 c 0,0 -12.1008,7.703733 -25.44405,0"
       id="path4866"
       inkscape:connector-curvature="0" />
    <path
       inkscape:connector-curvature="0"
       id="path4868"
       d="m 330.02439,54.533085 c 0,0 -12.1008,7.703733 -25.44405,0"
       style="fill:none;stroke:#000000;stroke-width:4;stroke-linecap:butt;stroke-linejoin:miter;stroke-miterlimit:4;stroke-dasharray:none;stroke-opacity:1" />
    <path
       style="fill:none;stroke:#000000;stroke-width:4;stroke-linecap:butt;stroke-linejoin:miter;stroke-miterlimit:4;stroke-dasharray:none;stroke-opacity:1"
       d="M 304.58034,54.533085 303.83199,38.817637"
       id="path4870"
       inkscape:connector-curvature="0" />
    <path
       transform="matrix(0.34848007,0.52400048,-0.60285649,0.40092229,75.655055,-158.63279)"
       style="opacity:1;fill:#502d16;fill-opacity:1;stroke:none;stroke-width:4;stroke-linecap:round;stroke-linejoin:round;stroke-miterlimit:4;stroke-dasharray:none;stroke-opacity:1;paint-order:markers fill stroke"
       inkscape:transform-center-x="2.292304"
       inkscape:transform-center-y="5.7086705"
       d="m 333.71797,-14.131349 c 8.41414,28.27712 -102.02904,-17.945708 -129.58972,-33.463174 -26.42744,-14.879418 -30.43756,-142.303547 35.17537,-150.981907 15.03618,-1.98878 -11.85755,16.183 40.6662,109.757036 15.08229,26.869951 49.1814,59.340711 53.74815,74.688045 z"
       id="path4872"
       inkscape:connector-curvature="0"
       sodipodi:nodetypes="sssss" />
    <path
       sodipodi:nodetypes="sssss"
       inkscape:connector-curvature="0"
       id="path4875"
       d="m 400.1328,9.0733046 c 14.11488,15.7459414 24.7364,-60.6581006 24.98594,-81.3212076 0.23928,-19.813482 -75.18174,-73.001967 -103.27834,-42.100117 -6.43876,7.08162 13.88815,0.27477 51.99638,65.313166 10.94285,18.67589 18.6352,49.56209083 26.29602,58.1081586 z"
       inkscape:transform-center-y="5.7086703"
       inkscape:transform-center-x="-2.292304"
       style="opacity:1;fill:#502d16;fill-opacity:1;stroke:none;stroke-width:2.69995713;stroke-linecap:round;stroke-linejoin:round;stroke-miterlimit:4;stroke-dasharray:none;stroke-opacity:1;paint-order:markers fill stroke" />
    <ellipse
       style="opacity:1;fill:#ffffff;fill-opacity:0.94375;stroke:none;stroke-width:5.54835415;stroke-linecap:round;stroke-linejoin:round;stroke-miterlimit:4;stroke-dasharray:none;stroke-opacity:1;paint-order:markers fill stroke"
       id="path950"
       cx="255.36984"
       cy="-15.215077"
       rx="8.8533583"
       ry="11.340414" />
    <ellipse
       ry="11.073144"
       rx="9.1206274"
       cy="-16.78722"
       cx="350.00143"
       id="ellipse952"
       style="opacity:1;fill:#ffffff;fill-opacity:0.946875;stroke:none;stroke-width:5.56472301;stroke-linecap:round;stroke-linejoin:round;stroke-miterlimit:4;stroke-dasharray:none;stroke-opacity:1;paint-order:markers fill stroke"
       inkscape:transform-center-x="128.84753"
       inkscape:transform-center-y="47.804421" />
    <rect
       style="opacity:1;fill:none;fill-opacity:0.98611109;stroke:#000000;stroke-width:6.29699993;stroke-linecap:round;stroke-linejoin:round;stroke-miterlimit:4;stroke-dasharray:none;stroke-opacity:1;paint-order:markers fill stroke"
       id="rect1004"
       width="159.55991"
       height="191.09772"
       x="-8.2853556"
       y="-408.85883"
       ry="0.46729386" />
  </g>
</svg>
