<?xml version="1.0" encoding="UTF-8" standalone="no"?>
<!-- Created with Inkscape (http://www.inkscape.org/) -->

<svg
   xmlns:dc="http://purl.org/dc/elements/1.1/"
   xmlns:cc="http://creativecommons.org/ns#"
   xmlns:rdf="http://www.w3.org/1999/02/22-rdf-syntax-ns#"
   xmlns:svg="http://www.w3.org/2000/svg"
   xmlns="http://www.w3.org/2000/svg"
   xmlns:xlink="http://www.w3.org/1999/xlink"
   xmlns:sodipodi="http://sodipodi.sourceforge.net/DTD/sodipodi-0.dtd"
   xmlns:inkscape="http://www.inkscape.org/namespaces/inkscape"
   width="793.70081"
   height="1122.5197"
   viewBox="0 0 210 297"
   version="1.1"
   id="svg8"
   sodipodi:docname="yin-yang.svg"
   inkscape:version="0.92.4 5da689c313, 2019-01-14">
  <defs
     id="defs2">
    <linearGradient
       inkscape:collect="always"
       id="linearGradient1553">
      <stop
         style="stop-color:#8be9fd;stop-opacity:1;"
         offset="0"
         id="stop1549" />
      <stop
         style="stop-color:#bd93f9;stop-opacity:1"
         offset="1"
         id="stop1551" />
    </linearGradient>
    <inkscape:path-effect
       effect="bspline"
       id="path-effect852"
       is_visible="true"
       weight="33.333333"
       steps="2"
       helper_size="0"
       apply_no_weight="true"
       apply_with_weight="true"
       only_selected="false" />
    <inkscape:path-effect
       effect="spiro"
       id="path-effect844"
       is_visible="true" />
    <inkscape:path-effect
       effect="spiro"
       id="path-effect819"
       is_visible="true" />
    <linearGradient
       inkscape:collect="always"
       xlink:href="#linearGradient1553"
       id="linearGradient1555"
       x1="328.93274"
       y1="855.08038"
       x2="328.93274"
       y2="356.66956"
       gradientUnits="userSpaceOnUse" />
  </defs>
  <sodipodi:namedview
     id="base"
     pagecolor="#ffffff"
     bordercolor="#666666"
     borderopacity="1.0"
     inkscape:pageopacity="0.0"
     inkscape:pageshadow="2"
     inkscape:zoom="1.1470703"
     inkscape:cx="238.74717"
     inkscape:cy="534.56984"
     inkscape:document-units="mm"
     inkscape:current-layer="layer1"
     showgrid="false"
     inkscape:object-paths="true"
     units="px"
     inkscape:snap-smooth-nodes="true"
     inkscape:snap-intersection-paths="true"
     inkscape:window-width="2558"
     inkscape:window-height="1078"
     inkscape:window-x="0"
     inkscape:window-y="0"
     inkscape:window-maximized="0" />
  <metadata
     id="metadata5">
    <rdf:RDF>
      <cc:Work
         rdf:about="">
        <dc:format>image/svg+xml</dc:format>
        <dc:type
           rdf:resource="http://purl.org/dc/dcmitype/StillImage" />
        <dc:title />
      </cc:Work>
    </rdf:RDF>
  </metadata>
  <g
     inkscape:label="Layer 1"
     inkscape:groupmode="layer"
     id="layer1">
    <path
       style="opacity:1;fill:#bd93f9;fill-opacity:1;stroke:none;stroke-width:0.21218663;stroke-linecap:butt;stroke-linejoin:round;stroke-miterlimit:4;stroke-dasharray:none;stroke-opacity:1;paint-order:stroke markers fill"
       d="m 108.29493,220.07475 a 33.072916,33.072916 0 0 1 -27.078458,-16.49925 33.072916,33.072916 0 0 1 0,-33.07292 33.072916,33.072916 0 0 1 28.642178,-16.53645 33.072916,33.072916 0 0 0 28.64218,-16.53646 33.072916,33.072916 0 0 0 0,-33.07292 33.072916,33.072916 0 0 0 -28.64218,-16.536457 66.145835,66.145835 0 0 0 -57.283834,33.072917 66.145835,66.145835 0 0 0 0,66.14583 66.145835,66.145835 0 0 0 55.720114,33.03571 z"
       id="path5325" />
    <path
       style="opacity:1;fill:#282a36;fill-opacity:1;stroke:none;stroke-width:0.21218663;stroke-linecap:butt;stroke-linejoin:round;stroke-miterlimit:4;stroke-dasharray:none;stroke-opacity:1;paint-order:stroke markers fill"
       d="m 111.42237,87.857503 a 33.072916,33.072916 0 0 1 27.07846,16.499257 33.072916,33.072916 0 0 1 0,33.07291 33.072916,33.072916 0 0 1 -28.64218,16.53646 33.072916,33.072916 0 0 0 -28.642183,16.53646 33.072916,33.072916 0 0 0 0,33.07291 33.072916,33.072916 0 0 0 28.642183,16.53646 66.145835,66.145835 0 0 0 57.28384,-33.07291 66.145835,66.145835 0 0 0 0,-66.14584 66.145835,66.145835 0 0 0 -55.72012,-33.035707 z"
       id="path5315" />
    <path
       style="opacity:1;fill:#bd93f9;fill-opacity:1;stroke:none;stroke-width:0.21218663;stroke-linecap:butt;stroke-linejoin:round;stroke-miterlimit:4;stroke-dasharray:none;stroke-opacity:1;paint-order:stroke markers fill"
       d="m 126.67001,187.03917 a 16.536459,16.536459 0 0 1 -16.53646,16.53645 16.536459,16.536459 0 0 1 -16.536457,-16.53645 16.536459,16.536459 0 0 1 16.536457,-16.53646 16.536459,16.536459 0 0 1 16.53646,16.53646 z"
       id="path5333" />
    <path
       style="opacity:1;fill:#282a36;fill-opacity:1;stroke:none;stroke-width:0.21218663;stroke-linecap:butt;stroke-linejoin:round;stroke-miterlimit:4;stroke-dasharray:none;stroke-opacity:1;paint-order:stroke markers fill"
       d="m 93.04729,120.89309 a 16.536459,16.536459 0 0 1 16.53646,-16.53646 16.536459,16.536459 0 0 1 16.53645,16.53646 16.536459,16.536459 0 0 1 -16.53645,16.53646 16.536459,16.536459 0 0 1 -16.53646,-16.53646 z"
       id="path5329" />
  </g>
</svg>
