<?xml version="1.0" encoding="UTF-8" standalone="no"?>
<!-- Created with Inkscape (http://www.inkscape.org/) -->

<svg
   xmlns:dc="http://purl.org/dc/elements/1.1/"
   xmlns:cc="http://creativecommons.org/ns#"
   xmlns:rdf="http://www.w3.org/1999/02/22-rdf-syntax-ns#"
   xmlns:svg="http://www.w3.org/2000/svg"
   xmlns="http://www.w3.org/2000/svg"
   xmlns:sodipodi="http://sodipodi.sourceforge.net/DTD/sodipodi-0.dtd"
   xmlns:inkscape="http://www.inkscape.org/namespaces/inkscape"
   width="511.99997"
   height="511.99997"
   viewBox="0 0 135.46666 135.46666"
   version="1.1"
   id="svg2930"
   inkscape:version="0.92.4 5da689c313, 2019-01-14"
   sodipodi:docname="archlinux.svg">
  <defs
     id="defs2924" />
  <sodipodi:namedview
     id="base"
     pagecolor="#ffffff"
     bordercolor="#666666"
     borderopacity="1.0"
     inkscape:pageopacity="0.0"
     inkscape:pageshadow="2"
     inkscape:zoom="0.74564396"
     inkscape:cx="100.4623"
     inkscape:cy="1.8487213"
     inkscape:document-units="px"
     inkscape:current-layer="layer1"
     showgrid="false"
     units="px"
     inkscape:window-width="1278"
     inkscape:window-height="1078"
     inkscape:window-x="1280"
     inkscape:window-y="0"
     inkscape:window-maximized="0"
     fit-margin-top="0"
     fit-margin-left="0"
     fit-margin-right="0"
     fit-margin-bottom="-0.6" />
  <metadata
     id="metadata2927">
    <rdf:RDF>
      <cc:Work
         rdf:about="">
        <dc:format>image/svg+xml</dc:format>
        <dc:type
           rdf:resource="http://purl.org/dc/dcmitype/StillImage" />
        <dc:title></dc:title>
      </cc:Work>
    </rdf:RDF>
  </metadata>
  <g
     inkscape:label="Layer 1"
     inkscape:groupmode="layer"
     id="layer1"
     transform="translate(-31.225805,-32.290325)">
    <rect
       style="opacity:1;fill:#282a36;fill-opacity:0.97630334;stroke:none;stroke-width:39.6875;stroke-linecap:butt;stroke-linejoin:round;stroke-miterlimit:4;stroke-dasharray:none;stroke-opacity:1;paint-order:fill markers stroke"
       id="rect2948"
       width="135.46666"
       height="135.46666"
       x="31.225805"
       y="32.290325" />
    <path
       style="opacity:1;fill:#8be9fd;fill-opacity:1;stroke:none;stroke-width:23.94116974;stroke-linecap:butt;stroke-linejoin:round;stroke-miterlimit:4;stroke-dasharray:none;stroke-opacity:1;paint-order:fill markers stroke"
       d="m 98.958977,51.523201 -7.805308,14.185726 c 1.866791,4.192406 3.750129,8.368267 6.189192,11.988398 -2.05607,-0.956094 -4.845563,-4.112454 -8.06927,-8.571456 L 45.586889,148.52411 c 0,0 26.249031,-13.2888 45.4014,-16.73235 -1.780682,-2.89483 -2.768665,-6.6561 -2.773343,-10.55817 -1.03e-4,-8.71912 4.810188,-15.78744 10.744031,-15.78747 5.933963,-1.6e-4 10.744453,7.06817 10.744353,15.78747 -0.004,3.90194 -0.99226,7.6632 -2.77271,10.55817 19.15232,3.44372 45.40076,16.73235 45.40076,16.73235 l -15.68815,-28.51226 c -5.32488,-1.6096 -21.06111,-10.7045 -27.59769,-10.8379 0,0 16.29987,5.06666 24.55643,5.31069 z"
       id="path3496"
       inkscape:connector-curvature="0"
       sodipodi:nodetypes="ccccccccccccccc" />
  </g>
</svg>
